<?xml version="1.0" encoding="UTF-8" standalone="no"?>
<svg
   xmlns:dc="http://purl.org/dc/elements/1.1/"
   xmlns:cc="http://creativecommons.org/ns#"
   xmlns:rdf="http://www.w3.org/1999/02/22-rdf-syntax-ns#"
   xmlns:svg="http://www.w3.org/2000/svg"
   xmlns="http://www.w3.org/2000/svg"
   xmlns:sodipodi="http://sodipodi.sourceforge.net/DTD/sodipodi-0.dtd"
   xmlns:inkscape="http://www.inkscape.org/namespaces/inkscape"
   enable-background="new 0 0 24 24"
   height="24px"
   id="Layer_1"
   version="1.1"
   viewBox="0 0 24 24"
   width="24px"
   xml:space="preserve"
   inkscape:version="0.91 r13725"
   sodipodi:docname="lock2.svg"><metadata
     id="metadata9"><rdf:RDF><cc:Work
         rdf:about=""><dc:format>image/svg+xml</dc:format><dc:type
           rdf:resource="http://purl.org/dc/dcmitype/StillImage" /><dc:title></dc:title></cc:Work></rdf:RDF></metadata><defs
     id="defs7" /><sodipodi:namedview
     pagecolor="#ffffff"
     bordercolor="#666666"
     borderopacity="1"
     objecttolerance="10"
     gridtolerance="10"
     guidetolerance="10"
     inkscape:pageopacity="0"
     inkscape:pageshadow="2"
     inkscape:window-width="1920"
     inkscape:window-height="1059"
     id="namedview5"
     showgrid="false"
     inkscape:zoom="9.8333333"
     inkscape:cx="9.984"
     inkscape:cy="12.001"
     inkscape:window-x="-8"
     inkscape:window-y="-8"
     inkscape:window-maximized="1"
     inkscape:current-layer="Layer_1" /><path
     d="m 18.7816,22.577271 -13.5472,0 c -0.9354583,0 -1.6929762,-0.789757 -1.6929762,-1.763731 l 0,-8.81954 c 0,-0.973975 0.7583652,-1.764613 1.6929762,-1.764613 l 0.8464882,0 0,-2.6451568 c 0,-3.4093523 2.6538548,-6.1735014 5.9271118,-6.1735014 3.273257,0 5.927112,2.7641491 5.927112,6.1735014 l 0,2.6451568 0.846488,0 c 0.935458,0 1.692976,0.789757 1.692976,1.764613 l 0,8.81954 c 0,0.973093 -0.758365,1.763731 -1.692976,1.763731 z M 15.3948,7.5842302 c 0,-1.9479495 -1.51673,-3.5274632 -3.3868,-3.5274632 -1.870069,0 -3.3868,1.5795137 -3.3868,3.5274632 l 0,2.6451568 6.7736,0 0,-2.6451568 z"
     id="path3"
     inkscape:connector-curvature="0"
     style="fill:#5590c7;clip-rule:evenodd;fill-rule:evenodd" /></svg>