<?xml version="1.0" encoding="UTF-8" standalone="no"?>
<svg width="15px" height="17px" viewBox="0 0 15 17" version="1.1" xmlns="http://www.w3.org/2000/svg" xmlns:xlink="http://www.w3.org/1999/xlink">
    <!-- Generator: Sketch 46.2 (44496) - http://www.bohemiancoding.com/sketch -->
    <title>calendar - FontAwesome</title>
    <desc>Created with Sketch.</desc>
    <defs></defs>
    <g id="Page-1" stroke="none" stroke-width="1" fill="none" fill-rule="evenodd">
        <g id="open-shop-order" transform="translate(-418.000000, -536.000000)" fill="#4A4A4A">
            <g id="Filter" transform="translate(373.000000, 465.000000)">
                <g id="pickup" transform="translate(30.000000, 23.000000)">
                    <path d="M16.1428571,63.1428571 L18.7142857,63.1428571 L18.7142857,60.5714286 L16.1428571,60.5714286 L16.1428571,63.1428571 Z M19.2857143,63.1428571 L22.1428571,63.1428571 L22.1428571,60.5714286 L19.2857143,60.5714286 L19.2857143,63.1428571 Z M16.1428571,60 L18.7142857,60 L18.7142857,57.1428571 L16.1428571,57.1428571 L16.1428571,60 Z M19.2857143,60 L22.1428571,60 L22.1428571,57.1428571 L19.2857143,57.1428571 L19.2857143,60 Z M16.1428571,56.5714286 L18.7142857,56.5714286 L18.7142857,54 L16.1428571,54 L16.1428571,56.5714286 Z M22.7142857,63.1428571 L25.5714286,63.1428571 L25.5714286,60.5714286 L22.7142857,60.5714286 L22.7142857,63.1428571 Z M19.2857143,56.5714286 L22.1428571,56.5714286 L22.1428571,54 L19.2857143,54 L19.2857143,56.5714286 Z M26.1428571,63.1428571 L28.7142857,63.1428571 L28.7142857,60.5714286 L26.1428571,60.5714286 L26.1428571,63.1428571 Z M22.7142857,60 L25.5714286,60 L25.5714286,57.1428571 L22.7142857,57.1428571 L22.7142857,60 Z M19.5714286,52.2857143 L19.5714286,49.7142857 C19.5714286,49.6369044 19.543155,49.5699408 19.4866071,49.5133929 C19.4300592,49.456845 19.3630956,49.4285714 19.2857143,49.4285714 L18.7142857,49.4285714 C18.6369044,49.4285714 18.5699408,49.456845 18.5133929,49.5133929 C18.456845,49.5699408 18.4285714,49.6369044 18.4285714,49.7142857 L18.4285714,52.2857143 C18.4285714,52.3630956 18.456845,52.4300592 18.5133929,52.4866071 C18.5699408,52.543155 18.6369044,52.5714286 18.7142857,52.5714286 L19.2857143,52.5714286 C19.3630956,52.5714286 19.4300592,52.543155 19.4866071,52.4866071 C19.543155,52.4300592 19.5714286,52.3630956 19.5714286,52.2857143 Z M26.1428571,60 L28.7142857,60 L28.7142857,57.1428571 L26.1428571,57.1428571 L26.1428571,60 Z M22.7142857,56.5714286 L25.5714286,56.5714286 L25.5714286,54 L22.7142857,54 L22.7142857,56.5714286 Z M26.1428571,56.5714286 L28.7142857,56.5714286 L28.7142857,54 L26.1428571,54 L26.1428571,56.5714286 Z M26.4285714,52.2857143 L26.4285714,49.7142857 C26.4285714,49.6369044 26.4002979,49.5699408 26.34375,49.5133929 C26.2872021,49.456845 26.2202385,49.4285714 26.1428571,49.4285714 L25.5714286,49.4285714 C25.4940472,49.4285714 25.4270836,49.456845 25.3705357,49.5133929 C25.3139878,49.5699408 25.2857143,49.6369044 25.2857143,49.7142857 L25.2857143,52.2857143 C25.2857143,52.3630956 25.3139878,52.4300592 25.3705357,52.4866071 C25.4270836,52.543155 25.4940472,52.5714286 25.5714286,52.5714286 L26.1428571,52.5714286 C26.2202385,52.5714286 26.2872021,52.543155 26.34375,52.4866071 C26.4002979,52.4300592 26.4285714,52.3630956 26.4285714,52.2857143 Z M29.8571429,51.7142857 L29.8571429,63.1428571 C29.8571429,63.4523825 29.7440487,63.720237 29.5178571,63.9464286 C29.2916655,64.1726202 29.0238111,64.2857143 28.7142857,64.2857143 L16.1428571,64.2857143 C15.8333318,64.2857143 15.5654773,64.1726202 15.3392857,63.9464286 C15.1130941,63.720237 15,63.4523825 15,63.1428571 L15,51.7142857 C15,51.4047604 15.1130941,51.1369059 15.3392857,50.9107143 C15.5654773,50.6845227 15.8333318,50.5714286 16.1428571,50.5714286 L17.2857143,50.5714286 L17.2857143,49.7142857 C17.2857143,49.3214266 17.4255938,48.9851204 17.7053571,48.7053571 C17.9851204,48.4255938 18.3214266,48.2857143 18.7142857,48.2857143 L19.2857143,48.2857143 C19.6785734,48.2857143 20.0148796,48.4255938 20.2946429,48.7053571 C20.5744062,48.9851204 20.7142857,49.3214266 20.7142857,49.7142857 L20.7142857,50.5714286 L24.1428571,50.5714286 L24.1428571,49.7142857 C24.1428571,49.3214266 24.2827367,48.9851204 24.5625,48.7053571 C24.8422633,48.4255938 25.1785695,48.2857143 25.5714286,48.2857143 L26.1428571,48.2857143 C26.5357163,48.2857143 26.8720224,48.4255938 27.1517857,48.7053571 C27.431549,48.9851204 27.5714286,49.3214266 27.5714286,49.7142857 L27.5714286,50.5714286 L28.7142857,50.5714286 C29.0238111,50.5714286 29.2916655,50.6845227 29.5178571,50.9107143 C29.7440487,51.1369059 29.8571429,51.4047604 29.8571429,51.7142857 Z" id="calendar---FontAwesome"></path>
                </g>
            </g>
        </g>
    </g>
</svg>