<?xml version="1.0" encoding="UTF-8" standalone="no"?>
<svg width="23px" height="19px" viewBox="0 0 23 19" version="1.1" xmlns="http://www.w3.org/2000/svg" xmlns:xlink="http://www.w3.org/1999/xlink">
    <!-- Generator: Sketch 46.2 (44496) - http://www.bohemiancoding.com/sketch -->
    <title>check - anticon</title>
    <desc>Created with Sketch.</desc>
    <defs>
        <linearGradient x1="0%" y1="50%" x2="96.8365779%" y2="50%" id="linearGradient-1">
            <stop stop-color="#06CA52" offset="0%"></stop>
            <stop stop-color="#0CA7F7" offset="100%"></stop>
        </linearGradient>
    </defs>
    <g id="Symbols" stroke="none" stroke-width="1" fill="none" fill-rule="evenodd">
        <g id="nav-booking-details" transform="translate(-480.000000, -57.000000)" fill="url(#linearGradient-1)">
            <g id="status-leiste" transform="translate(1.000000, 0.000000)">
                <g id="origin" transform="translate(423.000000, 34.000000)">
                    <path d="M62.1403318,41.1875 C62.0817378,41.1875 62.0329102,41.1777345 61.9938475,41.1582031 C61.6032205,41.1191404 61.3102547,40.9238299 61.1149412,40.5722656 L56.4567381,32.4277344 C56.3004873,32.1347642 56.2614252,31.8320328 56.3395506,31.5195312 C56.417676,31.2070297 56.5983382,30.972657 56.8815428,30.8164062 C57.1647473,30.6601555 57.4625959,30.6259761 57.7750975,30.7138672 C58.087599,30.8017583 58.3317372,30.9824205 58.5075193,31.2558594 L62.4040037,38.0820312 L76.7887693,23.6679688 C77.0036142,23.4335926 77.2770489,23.3164062 77.6090818,23.3164062 C77.9411148,23.3164062 78.2194323,23.4287098 78.4440428,23.6533203 C78.6686533,23.8779308 78.7809568,24.1562483 78.7809568,24.4882812 C78.7809568,24.8203142 78.6637705,25.0937489 78.4293943,25.3085938 L63.0192381,40.7773438 L62.9606443,40.8359375 C62.7457995,41.0703137 62.4723648,41.1875 62.1403318,41.1875 Z" id="check---anticon"></path>
                </g>
            </g>
        </g>
    </g>
</svg>