<?xml version="1.0" encoding="UTF-8" standalone="no"?>
<svg width="20px" height="21px" viewBox="0 0 20 21" version="1.1" xmlns="http://www.w3.org/2000/svg" xmlns:xlink="http://www.w3.org/1999/xlink">
    <!-- Generator: Sketch 46.2 (44496) - http://www.bohemiancoding.com/sketch -->
    <title>envelope-letter - simple-line-icons</title>
    <desc>Created with Sketch.</desc>
    <defs>
        <linearGradient x1="0%" y1="50%" x2="96.8365779%" y2="50%" id="linearGradient-1">
            <stop stop-color="#06CA52" offset="0%"></stop>
            <stop stop-color="#0CA7F7" offset="100%"></stop>
        </linearGradient>
    </defs>
    <g id="Page-1" stroke="none" stroke-width="1" fill="none" fill-rule="evenodd">
        <g id="booking-reservation-1" transform="translate(-906.000000, -1474.000000)" fill="url(#linearGradient-1)">
            <g id="Inhalt" transform="translate(-20.000000, 230.000000)">
                <g id="row2" transform="translate(388.000000, 1215.000000)">
                    <g id="Shipper" transform="translate(538.000000, 28.000000)">
                        <path d="M19.9804688,10.8010775 C19.9934896,10.8271193 20,10.8564158 20,10.8889681 L20,20.3127962 C20,20.6643605 19.8763033,20.9605815 19.6289062,21.2014681 C19.3815092,21.4423547 19.0885434,21.5627962 18.75,21.5627962 L1.25,21.5627962 C0.911456641,21.5627962 0.61849082,21.4423547 0.37109375,21.2014681 C0.12369668,20.9605815 0,20.6643605 0,20.3127962 L0,10.9573275 C0,10.7359722 0.0520828125,10.5341513 0.15625,10.3518587 C0.260417187,10.1695661 0.39713457,10.019828 0.56640625,9.90263996 L3.75,6.71904621 L3.75,4.66826496 C3.75,4.49899328 3.81184834,4.35251037 3.93554688,4.22881183 C4.05924541,4.1051133 4.20572832,4.04326496 4.375,4.04326496 L6.4453125,4.04326496 L8.7109375,2.09013996 C9.06250176,1.7385757 9.50520566,1.56279621 10.0390625,1.56279621 C10.5729193,1.56279621 11.0156232,1.7385757 11.3671875,2.09013996 L13.6523438,4.04326496 L15.625,4.04326496 C15.7942717,4.04326496 15.9407546,4.1051133 16.0644531,4.22881183 C16.1881517,4.35251037 16.25,4.49899328 16.25,4.66826496 L16.25,6.67998371 L19.5117188,9.96123371 L19.6289062,10.0784212 C19.6679689,10.1174839 19.7005207,10.156546 19.7265625,10.1956087 L19.7460938,10.21514 C19.8111982,10.2932653 19.8632811,10.3844103 19.9023438,10.4885775 C19.9414064,10.5927446 19.9674479,10.6969103 19.9804688,10.8010775 Z M5.25390625,15.7424837 L1.25,12.2073275 L1.25,19.4534212 L5.25390625,15.7424837 Z M6.46484375,16.3284212 L2.1484375,20.3127962 L17.9101562,20.3127962 L10.4101562,13.5159212 C10.3580727,13.4768585 10.289714,13.4410516 10.2050781,13.4084993 C10.1204423,13.3759471 10.0325525,13.3596712 9.94140625,13.3596712 C9.85025996,13.3596712 9.76237021,13.3759471 9.67773438,13.4084993 C9.59309854,13.4410516 9.51822949,13.4833689 9.453125,13.5354525 L6.7578125,16.0354525 C6.7447916,16.0614943 6.7317709,16.0842805 6.71875,16.1038118 C6.7057291,16.1233432 6.6927084,16.1396191 6.6796875,16.15264 C6.6406248,16.1917027 6.60481787,16.2242544 6.57226562,16.2502962 C6.53971338,16.276338 6.50390645,16.3023794 6.46484375,16.3284212 Z M14.8046875,15.8206087 L18.75,19.3752962 L18.75,12.324515 L14.8046875,15.8206087 Z M17.5390625,9.70732746 L16.25,8.41826496 L16.25,12.87139 L18.59375,10.7815462 L17.5195312,9.70732746 L17.5390625,9.70732746 Z M9.58984375,2.96904621 L8.33984375,4.04326496 L11.7382812,4.04326496 L10.4882812,2.96904621 C10.4231768,2.91696261 10.3515629,2.87464533 10.2734375,2.84209308 C10.1953121,2.80954084 10.1171879,2.79326496 10.0390625,2.79326496 C9.96093711,2.79326496 9.88281289,2.80954084 9.8046875,2.84209308 C9.72656211,2.87464533 9.65494824,2.91696261 9.58984375,2.96904621 Z M15,5.29326496 L5,5.29326496 L5,13.8479525 L6.171875,14.8831087 L8.65234375,12.5784212 C9.0429707,12.2659196 9.47590908,12.1129264 9.95117188,12.1194368 C10.4264347,12.1259473 10.8463523,12.2724302 11.2109375,12.55889 L13.8867188,14.980765 L15,13.9846712 L15,5.29326496 Z M2.03125,10.21514 L1.9921875,10.21514 L1.46484375,10.7229525 L3.75,12.7346712 L3.75,8.49638996 L2.03125,10.21514 Z" id="envelope-letter---simple-line-icons"></path>
                    </g>
                </g>
            </g>
        </g>
    </g>
</svg>