<?xml version="1.0" encoding="UTF-8" standalone="no"?>
<svg width="28px" height="31px" viewBox="0 0 28 31" version="1.1" xmlns="http://www.w3.org/2000/svg" xmlns:xlink="http://www.w3.org/1999/xlink">
    <!-- Generator: Sketch 46.2 (44496) - http://www.bohemiancoding.com/sketch -->
    <title>flag - simple-line-icons</title>
    <desc>Created with Sketch.</desc>
    <defs>
        <linearGradient x1="0%" y1="50%" x2="96.8365779%" y2="50%" id="linearGradient-1">
            <stop stop-color="#06CA52" offset="0%"></stop>
            <stop stop-color="#0CA7F7" offset="100%"></stop>
        </linearGradient>
    </defs>
    <g id="Page-1" stroke="none" stroke-width="1" fill="none" fill-rule="evenodd">
        <g id="booking-reservation-1" transform="translate(-1048.000000, -500.000000)" fill="url(#linearGradient-1)">
            <g id="ausganspunkt" transform="translate(1012.000000, 478.000000)">
                <path d="M54.921875,25.6582031 C56.0937559,25.6582031 57.1826122,25.5117202 58.1884766,25.21875 C59.194341,24.9257798 60.0634729,24.6035174 60.7958984,24.2519531 C61.528324,23.9003889 62.0996073,23.5781265 62.5097656,23.2851562 L63.125,22.8457031 L63.125,38.7832031 L62.5390625,39.2226562 C62.1484355,39.5156265 61.601566,39.8378889 60.8984375,40.1894531 C60.195309,40.5410174 59.3554736,40.8632798 58.3789062,41.15625 C57.4023389,41.4492202 56.3281309,41.5957031 55.15625,41.5957031 C53.9843691,41.5957031 52.9589888,41.4492202 52.0800781,41.15625 C51.2011675,40.8632798 50.32227,40.5410174 49.4433594,40.1894531 C48.5644487,39.8378889 47.6123098,39.5156265 46.5869141,39.2226562 C45.5615183,38.929686 44.306648,38.7832031 42.8222656,38.7832031 C41.9628863,38.7832031 41.1914097,38.9052722 40.5078125,39.1494141 C39.8242153,39.3935559 39.2382837,39.681639 38.75,40.0136719 L38.75,51.9667969 C38.75,52.2207044 38.6572275,52.4404288 38.4716797,52.6259766 C38.2861319,52.8115244 38.0664075,52.9042969 37.8125,52.9042969 C37.5585925,52.9042969 37.3388681,52.8115244 37.1533203,52.6259766 C36.9677725,52.4404288 36.875,52.2207044 36.875,51.9667969 L36.875,25.7460938 L38.5302734,24.2958984 C39.6337946,23.3290967 41.1425686,22.8457031 43.0566406,22.8457031 C44.541023,22.8457031 45.7714795,22.992186 46.7480469,23.2851562 C47.7246143,23.5781265 48.6230428,23.9003889 49.4433594,24.2519531 C50.263676,24.6035174 51.088863,24.9257798 51.9189453,25.21875 C52.7490276,25.5117202 53.7499941,25.6582031 54.921875,25.6582031 Z M61.25,37.8457031 L61.25,26.0976562 C60.4296834,26.4687519 59.4824272,26.8007798 58.4082031,27.09375 C57.333979,27.3867202 56.1718812,27.5332031 54.921875,27.5332031 C53.6328061,27.5332031 52.5293015,27.3818375 51.6113281,27.0791016 C50.6933548,26.7763657 49.8242229,26.4492205 49.0039062,26.0976562 C48.1835896,25.746092 47.329106,25.4287124 46.4404297,25.1455078 C45.5517534,24.8623033 44.423835,24.7207031 43.0566406,24.7207031 C42.0214792,24.7207031 41.1328162,24.9404275 40.390625,25.3798828 C39.6484338,25.8193381 39.1015643,26.1953109 38.75,26.5078125 L38.75,37.8457031 C39.2968777,37.5917956 39.912106,37.3720712 40.5957031,37.1865234 C41.2793003,37.0009756 42.0214804,36.9082031 42.8222656,36.9082031 C44.5605556,36.9082031 46.0253847,37.0888654 47.2167969,37.4501953 C48.4082091,37.8115252 49.4921826,38.187498 50.46875,38.578125 C51.2695353,38.9101579 52.0214809,39.1835927 52.7246094,39.3984375 C53.4277379,39.6132823 54.2382767,39.7207031 55.15625,39.7207031 C56.5429757,39.7207031 57.7734321,39.4912132 58.8476562,39.0322266 C59.9218804,38.5732399 60.7226536,38.177736 61.25,37.8457031 Z" id="flag---simple-line-icons"></path>
            </g>
        </g>
    </g>
</svg>