<?xml version="1.0" encoding="UTF-8" standalone="no"?>
<svg width="18px" height="21px" viewBox="0 0 18 21" version="1.1" xmlns="http://www.w3.org/2000/svg" xmlns:xlink="http://www.w3.org/1999/xlink">
    <!-- Generator: Sketch 46.2 (44496) - http://www.bohemiancoding.com/sketch -->
    <title>flag - simple-line-icons</title>
    <desc>Created with Sketch.</desc>
    <defs></defs>
    <g id="Page-1" stroke="none" stroke-width="1" fill="none" fill-rule="evenodd">
        <g id="open-shop-order" transform="translate(-987.000000, -1508.000000)" fill="#2C2C2C">
            <g id="alternativ" transform="translate(694.000000, 832.000000)">
                <g id="andere-transport" transform="translate(0.000000, 605.000000)">
                    <g id="ergebnis" transform="translate(0.000000, 45.000000)">
                        <g id="Ziel">
                            <g transform="translate(292.000000, 25.000000)">
                                <path d="M13.28125,3.10546875 C14.0625039,3.10546875 14.7884081,3.00781348 15.4589844,2.8125 C16.1295606,2.61718652 16.7089819,2.40234492 17.1972656,2.16796875 C17.6855493,1.93359258 18.0664049,1.71875098 18.3398438,1.5234375 L18.75,1.23046875 L18.75,11.8554688 L18.359375,12.1484375 C18.098957,12.343751 17.7343773,12.5585926 17.265625,12.7929688 C16.7968727,13.0273449 16.2369824,13.2421865 15.5859375,13.4375 C14.9348926,13.6328135 14.2187539,13.7304688 13.4375,13.7304688 C12.6562461,13.7304688 11.9726592,13.6328135 11.3867188,13.4375 C10.8007783,13.2421865 10.2148467,13.0273449 9.62890625,12.7929688 C9.04296582,12.5585926 8.40820654,12.343751 7.72460938,12.1484375 C7.04101221,11.953124 6.20443203,11.8554688 5.21484375,11.8554688 C4.64192422,11.8554688 4.12760645,11.9368481 3.671875,12.0996094 C3.21614355,12.2623706 2.82552246,12.454426 2.5,12.6757812 L2.5,20.6445312 C2.5,20.8138029 2.43815166,20.9602858 2.31445312,21.0839844 C2.19075459,21.2076829 2.04427168,21.2695312 1.875,21.2695312 C1.70572832,21.2695312 1.55924541,21.2076829 1.43554688,21.0839844 C1.31184834,20.9602858 1.25,20.8138029 1.25,20.6445312 L1.25,3.1640625 L2.35351562,2.19726562 C3.08919639,1.55273115 4.0950457,1.23046875 5.37109375,1.23046875 C6.36068203,1.23046875 7.18098633,1.32812402 7.83203125,1.5234375 C8.48307617,1.71875098 9.08202852,1.93359258 9.62890625,2.16796875 C10.175784,2.40234492 10.7259087,2.61718652 11.2792969,2.8125 C11.8326851,3.00781348 12.4999961,3.10546875 13.28125,3.10546875 Z M17.5,11.2304688 L17.5,3.3984375 C16.9531223,3.64583457 16.3216182,3.86718652 15.6054688,4.0625 C14.8893193,4.25781348 14.1145875,4.35546875 13.28125,4.35546875 C12.4218707,4.35546875 11.686201,4.2545583 11.0742188,4.05273438 C10.4622365,3.85091045 9.88281523,3.63281367 9.3359375,3.3984375 C8.78905977,3.16406133 8.219404,2.9524749 7.62695312,2.76367188 C7.03450225,2.57486885 6.28255664,2.48046875 5.37109375,2.48046875 C4.68098613,2.48046875 4.08854414,2.62695166 3.59375,2.91992188 C3.09895586,3.21289209 2.73437617,3.46354063 2.5,3.671875 L2.5,11.2304688 C2.86458516,11.0611971 3.2747373,10.9147142 3.73046875,10.7910156 C4.1862002,10.6673171 4.68098691,10.6054688 5.21484375,10.6054688 C6.37370371,10.6054688 7.35025645,10.7259103 8.14453125,10.9667969 C8.93880605,11.2076835 9.66145508,11.458332 10.3125,11.71875 C10.8463568,11.9401053 11.3476539,12.1223951 11.8164062,12.265625 C12.2851586,12.4088549 12.8255178,12.4804688 13.4375,12.4804688 C14.3619838,12.4804688 15.1822881,12.3274755 15.8984375,12.0214844 C16.6145869,11.7154933 17.1484357,11.451824 17.5,11.2304688 Z" id="flag---simple-line-icons"></path>
                            </g>
                        </g>
                    </g>
                </g>
            </g>
        </g>
    </g>
</svg>