<?xml version="1.0" encoding="UTF-8" standalone="no"?>
<svg width="15px" height="16px" viewBox="0 0 15 16" version="1.1" xmlns="http://www.w3.org/2000/svg" xmlns:xlink="http://www.w3.org/1999/xlink">
    <!-- Generator: Sketch 46.2 (44496) - http://www.bohemiancoding.com/sketch -->
    <title>info - simple-line-icons</title>
    <desc>Created with Sketch.</desc>
    <defs></defs>
    <g id="Page-1" stroke="none" stroke-width="1" fill="none" fill-rule="evenodd">
        <g id="booking-reservation-1" transform="translate(-1063.000000, -1849.000000)" fill="#4A4A4A">
            <path d="M1071.4375,1860.71875 C1071.56445,1860.71875 1071.67432,1860.76514 1071.76709,1860.85791 C1071.85986,1860.95068 1071.90625,1861.06055 1071.90625,1861.1875 C1071.90625,1861.31445 1071.85986,1861.42432 1071.76709,1861.51709 C1071.67432,1861.60986 1071.56445,1861.65625 1071.4375,1861.65625 L1069.5625,1861.65625 C1069.43555,1861.65625 1069.32568,1861.60986 1069.23291,1861.51709 C1069.14014,1861.42432 1069.09375,1861.31445 1069.09375,1861.1875 C1069.09375,1861.06055 1069.14014,1860.95068 1069.23291,1860.85791 C1069.32568,1860.76514 1069.43555,1860.71875 1069.5625,1860.71875 L1070.03125,1860.71875 L1070.03125,1856.96875 L1069.5625,1856.96875 C1069.43555,1856.96875 1069.32568,1856.92236 1069.23291,1856.82959 C1069.14014,1856.73682 1069.09375,1856.62695 1069.09375,1856.5 C1069.09375,1856.37305 1069.14014,1856.26318 1069.23291,1856.17041 C1069.32568,1856.07764 1069.43555,1856.03125 1069.5625,1856.03125 L1070.5,1856.03125 C1070.62695,1856.03125 1070.73682,1856.07764 1070.82959,1856.17041 C1070.92236,1856.26318 1070.96875,1856.37305 1070.96875,1856.5 L1070.96875,1860.71875 L1071.4375,1860.71875 Z M1070.5,1855.09375 C1070.23633,1855.09375 1070.01416,1855.00342 1069.8335,1854.82275 C1069.65283,1854.64209 1069.5625,1854.41992 1069.5625,1854.15625 C1069.5625,1853.89258 1069.65283,1853.67041 1069.8335,1853.48975 C1070.01416,1853.30908 1070.23633,1853.21875 1070.5,1853.21875 C1070.76367,1853.21875 1070.98584,1853.30908 1071.1665,1853.48975 C1071.34717,1853.67041 1071.4375,1853.89258 1071.4375,1854.15625 C1071.4375,1854.41992 1071.34717,1854.64209 1071.1665,1854.82275 C1070.98584,1855.00342 1070.76367,1855.09375 1070.5,1855.09375 Z M1070.5,1849.9375 C1071.53516,1849.9375 1072.50927,1850.13281 1073.42236,1850.52344 C1074.33545,1850.91406 1075.13134,1851.44873 1075.81006,1852.12744 C1076.48877,1852.80616 1077.02344,1853.60205 1077.41406,1854.51514 C1077.80469,1855.42823 1078,1856.40234 1078,1857.4375 C1078,1858.47266 1077.80469,1859.44677 1077.41406,1860.35986 C1077.02344,1861.27295 1076.48877,1862.06884 1075.81006,1862.74756 C1075.13134,1863.42627 1074.33545,1863.96094 1073.42236,1864.35156 C1072.50927,1864.74219 1071.53516,1864.9375 1070.5,1864.9375 C1069.46484,1864.9375 1068.49073,1864.74219 1067.57764,1864.35156 C1066.66455,1863.96094 1065.86866,1863.42627 1065.18994,1862.74756 C1064.51123,1862.06884 1063.97656,1861.27295 1063.58594,1860.35986 C1063.19531,1859.44677 1063,1858.47266 1063,1857.4375 C1063,1856.40234 1063.19531,1855.42823 1063.58594,1854.51514 C1063.97656,1853.60205 1064.51123,1852.80616 1065.18994,1852.12744 C1065.86866,1851.44873 1066.66455,1850.91406 1067.57764,1850.52344 C1068.49073,1850.13281 1069.46484,1849.9375 1070.5,1849.9375 Z M1070.5,1864.01465 C1071.40821,1864.01465 1072.26025,1863.84131 1073.05615,1863.49463 C1073.85205,1863.14795 1074.54541,1862.67676 1075.13623,1862.08105 C1075.72705,1861.48535 1076.1958,1860.78955 1076.54248,1859.99365 C1076.88916,1859.19775 1077.0625,1858.34571 1077.0625,1857.4375 C1077.0625,1856.52929 1076.88916,1855.67725 1076.54248,1854.88135 C1076.1958,1854.08545 1075.72705,1853.39209 1075.13623,1852.80127 C1074.54541,1852.21045 1073.85205,1851.7417 1073.05615,1851.39502 C1072.26025,1851.04834 1071.40821,1850.875 1070.5,1850.875 C1069.59179,1850.875 1068.73975,1851.04834 1067.94385,1851.39502 C1067.14795,1851.7417 1066.45459,1852.21045 1065.86377,1852.80127 C1065.27295,1853.39209 1064.8042,1854.08545 1064.45752,1854.88135 C1064.11084,1855.67725 1063.9375,1856.52929 1063.9375,1857.4375 C1063.9375,1858.34571 1064.11084,1859.19775 1064.45752,1859.99365 C1064.8042,1860.78955 1065.27295,1861.48535 1065.86377,1862.08105 C1066.45459,1862.67676 1067.14795,1863.14795 1067.94385,1863.49463 C1068.73975,1863.84131 1069.59179,1864.01465 1070.5,1864.01465 Z" id="info---simple-line-icons"></path>
        </g>
    </g>
</svg>