<?xml version="1.0" encoding="UTF-8" standalone="no"?>
<svg width="16px" height="21px" viewBox="0 0 16 21" version="1.1" xmlns="http://www.w3.org/2000/svg" xmlns:xlink="http://www.w3.org/1999/xlink">
    <!-- Generator: Sketch 46.2 (44496) - http://www.bohemiancoding.com/sketch -->
    <title>location-pin - simple-line-icons</title>
    <desc>Created with Sketch.</desc>
    <defs></defs>
    <g id="Page-1" stroke="none" stroke-width="1" fill="none" fill-rule="evenodd">
        <g id="open-shop-order" transform="translate(-707.000000, -1507.000000)" fill="#2C2C2C">
            <g id="alternativ" transform="translate(694.000000, 832.000000)">
                <g id="andere-transport" transform="translate(0.000000, 605.000000)">
                    <g id="ergebnis" transform="translate(0.000000, 45.000000)">
                        <g id="Ham">
                            <g transform="translate(11.000000, 25.000000)">
                                <path d="M10.078125,0.25 C11.2500059,0.25 12.2981725,0.451820898 13.2226562,0.85546875 C14.14714,1.2591166 14.9251271,1.80924131 15.5566406,2.50585938 C16.1881542,3.20247744 16.6699202,4.01301621 17.0019531,4.9375 C17.333986,5.86198379 17.5,6.83853652 17.5,7.8671875 C17.5,8.90885937 17.2949239,9.97330186 16.8847656,11.0605469 C16.4746073,12.1477919 15.9570344,13.2154896 15.3320312,14.2636719 C14.7070281,15.3118542 14.0299516,16.3046828 13.3007812,17.2421875 C12.5716109,18.1796922 11.888024,19.0130172 11.25,19.7421875 C11.25,19.7552084 11.1523447,19.8430981 10.9570312,20.0058594 C10.7617178,20.1686206 10.5338555,20.25 10.2734375,20.25 L10.2148438,20.25 C9.94140488,20.25 9.7102874,20.1686206 9.52148438,20.0058594 C9.33268135,19.8430981 9.23828125,19.7552084 9.23828125,19.7421875 C8.56119453,18.9609336 7.82877998,18.1080775 7.04101562,17.1835938 C6.25325127,16.25911 5.52409189,15.2858124 4.85351562,14.2636719 C4.18293936,13.2415313 3.62304912,12.1901096 3.17382812,11.109375 C2.72460713,10.0286404 2.5,8.94792207 2.5,7.8671875 C2.5,6.83853652 2.7018209,5.86198379 3.10546875,4.9375 C3.5091166,4.01301621 4.05598613,3.20247744 4.74609375,2.50585938 C5.43620137,1.80924131 6.24022979,1.2591166 7.15820312,0.85546875 C8.07617646,0.451820898 9.04947402,0.25 10.078125,0.25 Z M10.3125,18.9023438 C11.3020883,17.7695256 12.167965,16.6888072 12.9101562,15.6601562 C13.6523475,14.6315053 14.2708309,13.6582077 14.765625,12.7402344 C15.2604191,11.822261 15.6315092,10.9563843 15.8789062,10.1425781 C16.1263033,9.32877197 16.25,8.57031602 16.25,7.8671875 C16.25,7.0729127 16.1295585,6.29492568 15.8886719,5.53320312 C15.6477853,4.77148057 15.27344,4.09114883 14.765625,3.4921875 C14.25781,2.89322617 13.6165403,2.41146016 12.8417969,2.046875 C12.0670534,1.68228984 11.1458387,1.5 10.078125,1.5 C9.2187457,1.5 8.40495176,1.66926914 7.63671875,2.0078125 C6.86848574,2.34635586 6.19791953,2.80533564 5.625,3.38476562 C5.05208047,3.96419561 4.59635586,4.64127217 4.2578125,5.41601562 C3.91926914,6.19075908 3.75,7.0078082 3.75,7.8671875 C3.75,8.79167129 3.94531055,9.72916191 4.3359375,10.6796875 C4.72656445,11.6302131 5.22135117,12.5644485 5.8203125,13.4824219 C6.41927383,14.4003952 7.07681934,15.285803 7.79296875,16.1386719 C8.50911816,16.9915407 9.18619473,17.7890588 9.82421875,18.53125 L10.15625,18.9023438 L10.234375,18.9804688 C10.2473959,18.9674479 10.2636718,18.9544271 10.2832031,18.9414062 C10.3027345,18.9283854 10.3125,18.9153646 10.3125,18.9023438 Z M10.0195312,4.01953125 C11.0612031,4.01953125 11.9466109,4.38736611 12.6757812,5.12304688 C13.4049516,5.85872764 13.7695312,6.74088027 13.7695312,7.76953125 C13.7695312,8.81120312 13.4049516,9.69661094 12.6757812,10.4257812 C11.9466109,11.1549516 11.0612031,11.5195312 10.0195312,11.5195312 C8.99088027,11.5195312 8.10872764,11.1549516 7.37304688,10.4257812 C6.63736611,9.69661094 6.26953125,8.81120312 6.26953125,7.76953125 C6.26953125,6.74088027 6.63736611,5.85872764 7.37304688,5.12304688 C8.10872764,4.38736611 8.99088027,4.01953125 10.0195312,4.01953125 Z M10.0195312,10.2695312 C10.7096389,10.2695312 11.2955705,10.0221379 11.7773438,9.52734375 C12.259117,9.03254961 12.5,8.44010762 12.5,7.75 C12.5,7.05989238 12.2558618,6.47070557 11.7675781,5.98242188 C11.2792944,5.49413818 10.6901076,5.25 10,5.25 C9.30989238,5.25 8.72070557,5.49413818 8.23242188,5.98242188 C7.74413818,6.47070557 7.5,7.05989238 7.5,7.75 C7.5,8.44010762 7.74739336,9.03254961 8.2421875,9.52734375 C8.73698164,10.0221379 9.32942363,10.2695312 10.0195312,10.2695312 Z" id="location-pin---simple-line-icons"></path>
                            </g>
                        </g>
                    </g>
                </g>
            </g>
        </g>
    </g>
</svg>