<?xml version="1.0" encoding="UTF-8" standalone="no"?>
<svg width="24px" height="31px" viewBox="0 0 24 31" version="1.1" xmlns="http://www.w3.org/2000/svg" xmlns:xlink="http://www.w3.org/1999/xlink">
    <!-- Generator: Sketch 46.2 (44496) - http://www.bohemiancoding.com/sketch -->
    <title>location-pin - simple-line-icons</title>
    <desc>Created with Sketch.</desc>
    <defs>
        <linearGradient x1="0%" y1="50%" x2="96.8365779%" y2="50%" id="linearGradient-1">
            <stop stop-color="#06CA52" offset="0%"></stop>
            <stop stop-color="#0CA7F7" offset="100%"></stop>
        </linearGradient>
    </defs>
    <g id="Page-1" stroke="none" stroke-width="1" fill="none" fill-rule="evenodd">
        <g id="booking-reservation-1" transform="translate(-392.000000, -500.000000)" fill="url(#linearGradient-1)">
            <g id="ausganspunkt" transform="translate(372.000000, 478.000000)">
                <path d="M32.1171875,22.875 C33.8750088,22.875 35.4472587,23.1777313 36.8339844,23.7832031 C38.2207101,24.3886749 39.3876906,25.213862 40.3349609,26.2587891 C41.2822313,27.3037162 42.0048803,28.5195243 42.5029297,29.90625 C43.0009791,31.2929757 43.25,32.7578048 43.25,34.3007812 C43.25,35.8632891 42.9423859,37.4599528 42.3271484,39.0908203 C41.711911,40.7216878 40.9355516,42.3232343 39.9980469,43.8955078 C39.0605422,45.4677813 38.0449273,46.9570242 36.9511719,48.3632812 C35.8574164,49.7695383 34.832036,51.0195258 33.875,52.1132812 C33.875,52.1328126 33.7285171,52.2646472 33.4355469,52.5087891 C33.1425767,52.7529309 32.8007832,52.875 32.4101562,52.875 L32.3222656,52.875 C31.9121073,52.875 31.5654311,52.7529309 31.2822266,52.5087891 C30.999022,52.2646472 30.8574219,52.1328126 30.8574219,52.1132812 C29.8417918,50.9414004 28.74317,49.6621163 27.5615234,48.2753906 C26.3798769,46.8886649 25.2861378,45.4287186 24.2802734,43.8955078 C23.274409,42.362297 22.4345737,40.7851644 21.7607422,39.1640625 C21.0869107,37.5429606 20.75,35.9218831 20.75,34.3007812 C20.75,32.7578048 21.0527313,31.2929757 21.6582031,29.90625 C22.2636749,28.5195243 23.0839792,27.3037162 24.1191406,26.2587891 C25.1543021,25.213862 26.3603447,24.3886749 27.7373047,23.7832031 C29.1142647,23.1777313 30.574211,22.875 32.1171875,22.875 Z M32.46875,50.8535156 C33.9531324,49.1542884 35.2519476,47.5332108 36.3652344,45.9902344 C37.4785212,44.4472579 38.4062463,42.9873116 39.1484375,41.6103516 C39.8906287,40.2333916 40.4472638,38.9345764 40.8183594,37.7138672 C41.189455,36.493158 41.375,35.355474 41.375,34.3007812 C41.375,33.109369 41.1943377,31.9423885 40.8330078,30.7998047 C40.4716779,29.6572208 39.9101601,28.6367232 39.1484375,27.7382812 C38.3867149,26.8398393 37.4248105,26.1171902 36.2626953,25.5703125 C35.1005801,25.0234348 33.718758,24.75 32.1171875,24.75 C30.8281186,24.75 29.6074276,25.0039037 28.4550781,25.5117188 C27.3027286,26.0195338 26.2968793,26.7080035 25.4375,27.5771484 C24.5781207,28.4462934 23.8945338,29.4619083 23.3867188,30.6240234 C22.8789037,31.7861386 22.625,33.0117123 22.625,34.3007812 C22.625,35.6875069 22.9179658,37.0937429 23.5039062,38.5195312 C24.0898467,39.9453196 24.8320268,41.3466728 25.7304688,42.7236328 C26.6289107,44.1005928 27.615229,45.4287045 28.6894531,46.7080078 C29.7636772,47.9873111 30.7792921,49.1835882 31.7363281,50.296875 L32.234375,50.8535156 L32.3515625,50.9707031 C32.3710938,50.9511718 32.3955077,50.9316407 32.4248047,50.9121094 C32.4541017,50.892578 32.46875,50.873047 32.46875,50.8535156 Z M32.0292969,28.5292969 C33.5918047,28.5292969 34.9199164,29.0810492 36.0136719,30.1845703 C37.1074273,31.2880915 37.6542969,32.6113204 37.6542969,34.1542969 C37.6542969,35.7168047 37.1074273,37.0449164 36.0136719,38.1386719 C34.9199164,39.2324273 33.5918047,39.7792969 32.0292969,39.7792969 C30.4863204,39.7792969 29.1630915,39.2324273 28.0595703,38.1386719 C26.9560492,37.0449164 26.4042969,35.7168047 26.4042969,34.1542969 C26.4042969,32.6113204 26.9560492,31.2880915 28.0595703,30.1845703 C29.1630915,29.0810492 30.4863204,28.5292969 32.0292969,28.5292969 Z M32.0292969,37.9042969 C33.0644583,37.9042969 33.9433558,37.5332068 34.6660156,36.7910156 C35.3886755,36.0488244 35.75,35.1601614 35.75,34.125 C35.75,33.0898386 35.3837927,32.2060583 34.6513672,31.4736328 C33.9189417,30.7412073 33.0351614,30.375 32,30.375 C30.9648386,30.375 30.0810583,30.7412073 29.3486328,31.4736328 C28.6162073,32.2060583 28.25,33.0898386 28.25,34.125 C28.25,35.1601614 28.62109,36.0488244 29.3632812,36.7910156 C30.1054725,37.5332068 30.9941354,37.9042969 32.0292969,37.9042969 Z" id="location-pin---simple-line-icons"></path>
            </g>
        </g>
    </g>
</svg>