<?xml version="1.0" encoding="UTF-8" standalone="no"?>
<svg width="20px" height="21px" viewBox="0 0 20 21" version="1.1" xmlns="http://www.w3.org/2000/svg" xmlns:xlink="http://www.w3.org/1999/xlink">
    <!-- Generator: Sketch 46.2 (44496) - http://www.bohemiancoding.com/sketch -->
    <title>User - simple-line-icons</title>
    <desc>Created with Sketch.</desc>
    <defs>
        <linearGradient x1="0%" y1="50%" x2="96.8365779%" y2="50%" id="linearGradient-1">
            <stop stop-color="#06CA52" offset="0%"></stop>
            <stop stop-color="#0CA7F7" offset="100%"></stop>
        </linearGradient>
    </defs>
    <g id="Page-1" stroke="none" stroke-width="1" fill="none" fill-rule="evenodd">
        <g id="booking-reservation-1" transform="translate(-368.000000, -1474.000000)" fill="url(#linearGradient-1)">
            <g id="Inhalt" transform="translate(-20.000000, 230.000000)">
                <g id="row2" transform="translate(388.000000, 1215.000000)">
                    <g id="Shipper">
                        <path d="M10,30.4579832 C9.46614316,30.4579832 8.93880469,30.5588936 8.41796875,30.7607176 C7.89713281,30.9625415 7.4283875,31.2197004 7.01171875,31.5322019 C6.59505,31.8447035 6.25976689,32.1832418 6.00585938,32.5478269 C5.75195186,32.9124121 5.625,33.2574607 5.625,33.5829832 L5.625,36.7079832 C5.625,37.3199654 5.77799326,38.1012076 6.08398438,39.0517332 C6.38997549,40.0022588 6.86848633,40.7379285 7.51953125,41.2587644 C7.68880293,41.3889734 7.81575479,41.5549874 7.90039062,41.7568113 C7.98502646,41.9586352 8.01432305,42.1702217 7.98828125,42.3915769 C7.94921855,42.5999113 7.86783916,42.7919667 7.74414062,42.9677488 C7.62044209,43.1435309 7.46093848,43.2769932 7.265625,43.3681394 L1.77734375,45.9657957 C1.69921836,45.9918375 1.59179756,46.0536858 1.45507812,46.1513426 C1.31835869,46.2489993 1.25,46.428034 1.25,46.6884519 L1.25,47.9579832 L18.7304688,47.9384519 L18.7304688,46.7275144 C18.7304688,46.3889711 18.6490894,46.1773847 18.4863281,46.0927488 C18.3235669,46.008113 18.2356771,45.9657957 18.2226562,45.9657957 L12.7734375,43.3876707 C12.578124,43.2965244 12.4153652,43.1630622 12.2851562,42.9872801 C12.1549473,42.8114979 12.076823,42.6129322 12.0507812,42.3915769 C12.0247395,42.1702217 12.054036,41.9586352 12.1386719,41.7568113 C12.2233077,41.5549874 12.3502596,41.3889734 12.5195312,41.2587644 C13.196618,40.7379285 13.6751288,39.9990036 13.9550781,39.0419676 C14.2350274,38.0849315 14.375,37.3069445 14.375,36.7079832 L14.375,33.5829832 C14.375,33.2444398 14.244793,32.8928808 13.984375,32.5282957 C13.723957,32.1637105 13.3886739,31.8284274 12.9785156,31.5224363 C12.5683573,31.2164452 12.099612,30.9625415 11.5722656,30.7607176 C11.0449192,30.5588936 10.5208359,30.4579832 10,30.4579832 Z M10,29.2079832 C10.6901076,29.2079832 11.3704394,29.3381902 12.0410156,29.5986082 C12.7115919,29.8590262 13.3105442,30.1975644 13.8378906,30.6142332 C14.365237,31.0309019 14.7949202,31.4996473 15.1269531,32.0204832 C15.458986,32.5413191 15.625,33.0621473 15.625,33.5829832 L15.625,36.7079832 C15.625,37.0855892 15.5859379,37.5217828 15.5078125,38.0165769 C15.4296871,38.5113711 15.2994801,39.0159233 15.1171875,39.5302488 C14.9348949,40.0445743 14.6940119,40.539361 14.3945312,41.0146238 C14.0950506,41.4898866 13.7304709,41.8967836 13.3007812,42.2353269 L18.75,44.8329832 L19.3652344,45.1747801 C19.7753927,45.4026458 19.9804688,45.6988668 19.9804688,46.0634519 L19.9804688,47.9579832 C19.9804688,48.2965266 19.8600272,48.5862372 19.6191406,48.8271238 C19.378254,49.0680104 19.0885434,49.1884519 18.75,49.1884519 L1.25,49.1884519 C0.898435742,49.1884519 0.602214746,49.0680104 0.361328125,48.8271238 C0.120441504,48.5862372 0,48.2965266 0,47.9579832 L0,46.0634519 C0,45.7249086 0.20833125,45.4351979 0.625,45.1943113 L1.25,44.8329832 L6.73828125,42.2353269 C6.2955707,41.8837627 5.92448066,41.4605898 5.625,40.9657957 C5.32551934,40.4710016 5.08138115,39.9664493 4.89257812,39.4521238 C4.7037751,38.9377983 4.57031289,38.4365013 4.4921875,37.9482176 C4.41406211,37.4599339 4.375,37.0465266 4.375,36.7079832 L4.375,33.5829832 C4.375,33.0621473 4.53775879,32.5413191 4.86328125,32.0204832 C5.18880371,31.4996473 5.61523174,31.0309019 6.14257812,30.6142332 C6.66992451,30.1975644 7.27213203,29.8590262 7.94921875,29.5986082 C8.62630547,29.3381902 9.30989238,29.2079832 10,29.2079832 Z" id="User---simple-line-icons"></path>
                    </g>
                </g>
            </g>
        </g>
    </g>
</svg>