<?xml version="1.0" encoding="UTF-8" standalone="no"?>
<svg width="20px" height="20px" viewBox="0 0 20 20" version="1.1" xmlns="http://www.w3.org/2000/svg" xmlns:xlink="http://www.w3.org/1999/xlink">
    <!-- Generator: Sketch 46.2 (44496) - http://www.bohemiancoding.com/sketch -->
    <title>phone - simple-line-icons</title>
    <desc>Created with Sketch.</desc>
    <defs>
        <linearGradient x1="0%" y1="50%" x2="96.8365779%" y2="50%" id="linearGradient-1">
            <stop stop-color="#06CA52" offset="0%"></stop>
            <stop stop-color="#0CA7F7" offset="100%"></stop>
        </linearGradient>
    </defs>
    <g id="Symbols" stroke="none" stroke-width="1" fill="none" fill-rule="evenodd">
        <g id="footer" transform="translate(-1457.000000, -72.000000)" fill="url(#linearGradient-1)">
            <g id="quickcontact">
                <g transform="translate(1167.000000, 70.000000)">
                    <g id="phone" transform="translate(290.000000, 0.000000)">
                        <path d="M5.1171875,2.97265625 C5.48177266,3.48047129 5.88215928,4.05989258 6.31835938,4.7109375 C6.75455947,5.36198242 7.22655996,6.08463145 7.734375,6.87890625 C7.86458398,7.08724062 7.91992197,7.32161328 7.90039062,7.58203125 C7.88085928,7.84244922 7.78645918,8.12239434 7.6171875,8.421875 C7.55208301,8.55208398 7.44140703,8.76041523 7.28515625,9.046875 C7.12890547,9.33333477 6.92708457,9.7044248 6.6796875,10.1601562 C6.95312637,10.5507832 7.30143018,10.9869768 7.72460938,11.46875 C8.14778857,11.9505232 8.63932012,12.4713514 9.19921875,13.03125 C9.77213828,13.6041695 10.2962216,14.1022114 10.7714844,14.5253906 C11.2467472,14.9485698 11.6731752,15.2968736 12.0507812,15.5703125 C12.4934918,15.3098945 12.8613267,15.0983081 13.1542969,14.9355469 C13.4472671,14.7727856 13.6588535,14.6588545 13.7890625,14.59375 C13.9453133,14.5026037 14.1048169,14.434245 14.2675781,14.3886719 C14.4303394,14.3430987 14.5833326,14.3203125 14.7265625,14.3203125 C14.8437506,14.3203125 14.9511714,14.3333332 15.0488281,14.359375 C15.1464849,14.3854168 15.240885,14.4244789 15.3320312,14.4765625 C15.9179717,14.8281268 16.5364551,15.222003 17.1875,15.6582031 C17.8385449,16.0944032 18.5351525,16.5729141 19.2773438,17.09375 C19.4075527,17.1848963 19.5117184,17.3020826 19.5898438,17.4453125 C19.6679691,17.5885424 19.720052,17.7447908 19.7460938,17.9140625 C19.7591146,18.0963551 19.7395836,18.2819001 19.6875,18.4707031 C19.6354164,18.6595062 19.5442715,18.8515615 19.4140625,19.046875 C19.3619789,19.1380213 19.2838547,19.2486973 19.1796875,19.3789062 C19.0755203,19.5091152 18.9518236,19.6588533 18.8085938,19.828125 C18.6783848,19.9973967 18.5091156,20.1894521 18.3007812,20.4042969 C18.0924469,20.6191417 17.8450535,20.8567695 17.5585938,21.1171875 C17.2851549,21.3776055 17.0345063,21.572916 16.8066406,21.703125 C16.5787749,21.833334 16.3802092,21.8984375 16.2109375,21.8984375 L16.171875,21.8984375 C15.4947883,21.8723957 14.78516,21.7259128 14.0429688,21.4589844 C13.3007775,21.192056 12.5195354,20.8112004 11.6992188,20.3164062 C10.8789021,19.8216121 10.0195357,19.2031287 9.12109375,18.4609375 C8.22265176,17.7187463 7.28516113,16.8658902 6.30859375,15.9023438 C5.33202637,14.9257764 4.47591514,13.9882857 3.74023438,13.0898438 C3.00455361,12.1914018 2.38607021,11.3320354 1.88476562,10.5117188 C1.38346104,9.69140215 1.00260547,8.90690479 0.7421875,8.15820312 C0.481769531,7.40950146 0.338541797,6.70312832 0.3125,6.0390625 C0.3125,5.85676992 0.377603516,5.65169385 0.5078125,5.42382812 C0.638021484,5.1959624 0.833332031,4.93880352 1.09375,4.65234375 C1.35416797,4.36588398 1.58854063,4.1217458 1.796875,3.91992188 C2.00520938,3.71809795 2.19400957,3.55208398 2.36328125,3.421875 C2.51953203,3.30468691 2.66927012,3.19401094 2.8125,3.08984375 C2.95572988,2.98567656 3.07942656,2.89453164 3.18359375,2.81640625 C3.32682363,2.71223906 3.47656172,2.63737002 3.6328125,2.59179688 C3.78906328,2.54622373 3.95833242,2.5234375 4.140625,2.5234375 C4.34895937,2.5234375 4.53450439,2.55924443 4.69726562,2.63085938 C4.86002686,2.70247432 4.99999941,2.81640547 5.1171875,2.97265625 Z M3.8671875,3.7734375 C3.60676953,3.95573008 3.35286582,4.1542958 3.10546875,4.36914062 C2.85807168,4.58398545 2.61718867,4.80859258 2.3828125,5.04296875 C2.14843633,5.27734492 1.96289131,5.47916582 1.82617188,5.6484375 C1.68945244,5.81770918 1.6015627,5.96093691 1.5625,6.078125 C1.5885418,6.66406543 1.72525918,7.28905918 1.97265625,7.953125 C2.22005332,8.61719082 2.57812266,9.32356396 3.046875,10.0722656 C3.51562734,10.8209673 4.09504863,11.6087198 4.78515625,12.4355469 C5.47526387,13.2623739 6.27603711,14.1315059 7.1875,15.0429688 C8.09896289,15.9544316 8.96809482,16.7552049 9.79492188,17.4453125 C10.6217489,18.1354201 11.4095015,18.7148414 12.1582031,19.1835938 C12.9069048,19.6523461 13.6165331,20.0104154 14.2871094,20.2578125 C14.9576856,20.5052096 15.5859346,20.6484373 16.171875,20.6875 C16.2630213,20.6484373 16.3932283,20.5572924 16.5625,20.4140625 C16.7317717,20.2708326 16.9335926,20.0820324 17.1679688,19.8476562 C17.4023449,19.6132801 17.6236969,19.3691419 17.8320312,19.1152344 C18.0403656,18.8613269 18.2421865,18.604168 18.4375,18.34375 C18.4765627,18.2916664 18.5026041,18.2428388 18.515625,18.1972656 C18.5286459,18.1516925 18.5286459,18.1093752 18.515625,18.0703125 C17.7604129,17.5364557 17.0670604,17.0612 16.4355469,16.6445312 C15.8040333,16.2278625 15.2343775,15.8567725 14.7265625,15.53125 C14.6744789,15.53125 14.6158857,15.5410155 14.5507812,15.5605469 C14.4856768,15.5800782 14.4140629,15.6093748 14.3359375,15.6484375 C14.2317703,15.713542 14.0364598,15.824218 13.75,15.9804688 C13.4635402,16.1367195 13.0924502,16.3385404 12.6367188,16.5859375 L11.9921875,16.9765625 L11.3476562,16.546875 C10.9309875,16.2604152 10.4720077,15.8925804 9.97070312,15.4433594 C9.46939854,14.9941384 8.91927383,14.4700551 8.3203125,13.8710938 C7.73437207,13.2721324 7.2200543,12.7220077 6.77734375,12.2207031 C6.3346332,11.7193985 5.97005352,11.2604187 5.68359375,10.84375 L5.21484375,10.2382812 L5.60546875,9.5546875 C5.85286582,9.09895605 6.05468672,8.73112119 6.2109375,8.45117188 C6.36718828,8.17122256 6.47786426,7.97265684 6.54296875,7.85546875 C6.58203145,7.77734336 6.61132803,7.70572949 6.63085938,7.640625 C6.65039072,7.57552051 6.66015625,7.51692734 6.66015625,7.46484375 C6.2044248,6.74869434 5.77148643,6.07812812 5.36132812,5.453125 C4.95116982,4.82812188 4.55729355,4.24219023 4.1796875,3.6953125 L4.140625,3.6953125 C4.08854141,3.6953125 4.03971377,3.70182285 3.99414062,3.71484375 C3.94856748,3.72786465 3.9062502,3.7473957 3.8671875,3.7734375 Z" id="phone---simple-line-icons"></path>
                    </g>
                </g>
            </g>
        </g>
    </g>
</svg>