<?xml version="1.0" encoding="UTF-8" standalone="no"?>
<svg width="21px" height="22px" viewBox="0 0 21 22" version="1.1" xmlns="http://www.w3.org/2000/svg" xmlns:xlink="http://www.w3.org/1999/xlink">
    <!-- Generator: Sketch 46.2 (44496) - http://www.bohemiancoding.com/sketch -->
    <title>plane - simple-line-icons</title>
    <desc>Created with Sketch.</desc>
    <defs></defs>
    <g id="Page-1" stroke="none" stroke-width="1" fill="none" fill-rule="evenodd">
        <g id="open-shop-order" transform="translate(-431.000000, -645.000000)" fill="#000000">
            <g id="Filter" transform="translate(373.000000, 465.000000)">
                <g id="stops" transform="translate(29.000000, 137.000000)">
                    <g id="plane" transform="translate(1.000000, 43.000000)">
                        <path d="M29.7984628,14.75 C30.1225405,14.9566339 30.5142607,15.2027256 30.9736328,15.4882812 C31.4794947,15.8027359 31.9785132,16.1103501 32.4707031,16.4111328 L32.7373047,16.5957031 L32.921875,16.8623047 C33.0312505,17.04004 33.2431625,17.3818334 33.5576172,17.8876953 C33.8720719,18.3935572 34.1660143,18.8583963 34.4394531,19.2822266 C34.466797,19.3369143 34.4941405,19.3881834 34.5214844,19.4360352 C34.5488283,19.483887 34.5761717,19.5283201 34.6035156,19.5693359 C34.6171876,19.5693359 34.6069338,19.565918 34.5727539,19.559082 C34.538574,19.5522461 34.5283202,19.5419923 34.5419922,19.5283203 L34.5419922,16.0625 L34.9316406,15.6728516 L37.5976562,13.109375 L39.0537109,11.6533203 L39.7714844,13.5810547 C39.9082038,13.9638691 40.0654288,14.4013647 40.2431641,14.8935547 C40.4208993,15.3857446 40.6054678,15.888181 40.796875,16.4008789 C40.9882822,16.9135768 41.1694327,17.4023414 41.340332,17.8671875 C41.5112313,18.3320336 41.6582025,18.728514 41.78125,19.0566406 C41.9316414,18.8925773 42.0888664,18.7182626 42.2529297,18.5336914 C42.416993,18.3491202 42.5468745,18.202149 42.6425781,18.0927734 C42.683594,18.0380857 42.7075195,17.9970704 42.7143555,17.9697266 C42.7211914,17.9423827 42.7246094,17.9082033 42.7246094,17.8671875 C42.7109374,17.7988278 42.683594,17.422855 42.6425781,16.7392578 C42.6015623,16.0556606 42.5605471,15.2968792 42.5195312,14.4628906 C42.4511715,13.5195265 42.3896487,12.5488331 42.3349609,11.5507812 C42.2802732,10.5527294 42.2324221,9.74609683 42.1914062,9.13085938 L42.1503906,8.55664062 L46.8876953,3.81933594 C47.3525414,3.35448986 47.5986327,2.92041217 47.6259766,2.51708984 C47.6533204,2.11376751 47.6464846,1.85058655 47.6054688,1.72753906 C47.5644529,1.71386712 47.506348,1.70019538 47.4311523,1.68652344 C47.3559567,1.67285149 47.2636724,1.66601562 47.1542969,1.66601562 C46.9902336,1.66601562 46.757814,1.71044877 46.4570312,1.79931641 C46.1562485,1.88818404 45.8417985,2.09667805 45.5136719,2.42480469 L40.7763672,7.16210938 L40.1816406,7.12109375 C39.5937471,7.09374986 38.8247118,7.04931671 37.8745117,6.98779297 C36.9243117,6.92626922 35.9912155,6.86132847 35.0751953,6.79296875 C34.2001909,6.73828098 33.3867225,6.68701196 32.6347656,6.63916016 C31.8828087,6.59130835 31.4658207,6.56738281 31.3837891,6.56738281 L31.3427734,6.56738281 C31.3291015,6.56738281 31.3085939,6.57421868 31.28125,6.58789062 C31.2539061,6.60156257 31.2265626,6.62207018 31.1992188,6.64941406 C31.0761713,6.74511767 30.9257821,6.87158125 30.7480469,7.02880859 C30.5703116,7.18603594 30.3994149,7.34667887 30.2353516,7.51074219 C30.5498063,7.63378968 30.9462867,7.7841788 31.4248047,7.96191406 C31.9033227,8.13964933 32.4023412,8.32421779 32.921875,8.515625 C33.4414088,8.70703221 33.9506811,8.89501861 34.449707,9.07958984 C34.948733,9.26416108 35.3828107,9.424804 35.7519531,9.56152344 L37.6796875,10.2587891 L36.2236328,11.7148438 L33.6396484,14.3808594 L33.2705078,14.75 L32.7373047,14.7705078 L32.3066406,14.7705078 C32.0742176,14.7705078 31.8212904,14.7670899 31.5478516,14.7602539 C31.2744127,14.7534179 31.0078138,14.75 30.7480469,14.75 L29.7984628,14.75 L29.7984628,14.75 Z M47.1542969,0.353515625 C47.4687516,0.353515625 47.7456043,0.39453084 47.9848633,0.4765625 C48.2241223,0.55859416 48.4121087,0.667968066 48.5488281,0.8046875 C48.822267,1.07812637 48.9624023,1.61132416 48.9692383,2.40429687 C48.9760743,3.19726959 48.5966835,3.97655867 47.8310547,4.7421875 L43.5039062,9.06933594 C43.5312501,9.67090145 43.5756833,10.4570264 43.637207,11.4277344 C43.6987308,12.3984424 43.7568357,13.3520461 43.8115234,14.2885742 C43.8662112,15.2251023 43.9140623,16.0385708 43.9550781,16.7290039 C43.996094,17.419437 44.0166016,17.7783202 44.0166016,17.8056641 C44.0302735,17.9150396 44.0234376,18.0654287 43.9960938,18.2568359 C43.9687499,18.4482431 43.8525401,18.666991 43.6474609,18.9130859 C43.4423818,19.1591809 43.1655291,19.470213 42.8168945,19.8461914 L42.2939453,20.4101562 C42.1845698,20.5195318 42.0649421,20.6049802 41.9350586,20.6665039 C41.8051751,20.7280277 41.6787116,20.7587891 41.5556641,20.7587891 L41.453125,20.7587891 C41.3710933,20.7451171 41.2651374,20.7041019 41.1352539,20.6357422 C41.0053704,20.5673825 40.8994145,20.4306651 40.8173828,20.2255859 C40.7900389,20.1572262 40.6875009,19.8837915 40.5097656,19.4052734 C40.3320304,18.9267554 40.1235364,18.3696321 39.8842773,17.7338867 C39.6450183,17.0981414 39.402345,16.43848 39.15625,15.7548828 C38.910155,15.0712856 38.6982431,14.4970726 38.5205078,14.0322266 L35.8544922,16.6162109 C35.8408202,16.9853534 35.8374023,17.5253871 35.8442383,18.2363281 C35.8510743,18.9472692 35.8476563,19.4189442 35.8339844,19.6513672 C35.8339844,19.7197269 35.8237306,19.8461905 35.8032227,20.0307617 C35.7827147,20.215333 35.5947283,20.5126933 35.2392578,20.9228516 C35.1162103,21.0322271 34.9931647,21.1176755 34.8701172,21.1791992 C34.7470697,21.240723 34.6308599,21.2714844 34.5214844,21.2714844 L34.5009766,21.2714844 C34.3779291,21.2714844 34.2651372,21.240723 34.1625977,21.1791992 C34.0600581,21.1176755 33.9746097,21.0322271 33.90625,20.9228516 C33.8925781,20.8955077 33.79004,20.7314468 33.5986328,20.4306641 C33.4072256,20.1298813 33.1918957,19.7880879 32.9526367,19.4052734 C32.7133777,19.022459 32.4843761,18.6533221 32.265625,18.2978516 C32.0468739,17.942381 31.8896489,17.6894539 31.7939453,17.5390625 C31.0419884,17.0878884 30.2900428,16.6230493 29.5380859,16.1445312 C28.7861291,15.6660132 28.3759769,15.3994143 28.3076172,15.3447266 C28.1845697,15.249023 28.1059572,15.1464849 28.0717773,15.0371094 C28.0375975,14.9277338 28.0205078,14.8320317 28.0205078,14.75 C28.0205078,14.6679683 28.0410154,14.5688482 28.0820312,14.4526367 C28.1230471,14.3364252 28.2050775,14.2167975 28.328125,14.09375 L28.3896484,14.0322266 C28.7861348,13.7040999 29.0766592,13.5229494 29.2612305,13.4887695 C29.4458017,13.4545897 29.5791012,13.4375 29.6611328,13.4375 L29.8046875,13.4375 C30.0507825,13.4375 30.4301732,13.4409179 30.9428711,13.4477539 C31.455569,13.4545899 31.9101543,13.4580078 32.3066406,13.4580078 L32.7167969,13.4580078 L35.3007812,10.7919922 C34.8222632,10.6142569 34.2412144,10.398927 33.5576172,10.1459961 C32.87402,9.89306514 32.2109407,9.64697385 31.5683594,9.40771484 C30.925778,9.16845583 30.3618188,8.95654389 29.8764648,8.77197266 C29.3911109,8.58740142 29.121094,8.48828132 29.0664062,8.47460937 C28.8476552,8.39257771 28.7041019,8.28320381 28.6357422,8.14648438 C28.5673825,8.00976494 28.5332031,7.90039104 28.5332031,7.81835937 C28.5058592,7.667968 28.5229489,7.52099681 28.5844727,7.37744141 C28.6459964,7.233886 28.7382806,7.10058655 28.8613281,6.97753906 L29.425293,6.45458984 C29.8012714,6.10595529 30.1123035,5.82910259 30.3583984,5.62402344 C30.5634776,5.45996012 30.751464,5.35742208 30.9223633,5.31640625 C31.0932626,5.27539042 31.2333979,5.25488281 31.3427734,5.25488281 L31.4453125,5.25488281 C31.4863283,5.25488281 31.8554653,5.27539042 32.5527344,5.31640625 C33.2500035,5.35742208 34.0668898,5.4086911 35.003418,5.47021484 C35.9399461,5.53173859 36.9003857,5.59667935 37.8847656,5.66503906 C38.8691455,5.73339878 39.6621064,5.78124986 40.2636719,5.80859375 L44.5908203,1.50195312 C45.0146506,1.07812288 45.4521462,0.780762573 45.9033203,0.609863281 C46.3544944,0.438963989 46.7714825,0.353515625 47.1542969,0.353515625 Z" id="plane---simple-line-icons"></path>
                    </g>
                </g>
            </g>
        </g>
    </g>
</svg>