<?xml version="1.0" encoding="UTF-8" standalone="no"?>
<svg width="18px" height="19px" viewBox="0 0 18 19" version="1.1" xmlns="http://www.w3.org/2000/svg" xmlns:xlink="http://www.w3.org/1999/xlink">
    <!-- Generator: Sketch 46.2 (44496) - http://www.bohemiancoding.com/sketch -->
    <title>plus - simple-line-icons</title>
    <desc>Created with Sketch.</desc>
    <defs></defs>
    <g id="Page-1" stroke="none" stroke-width="1" fill="none" fill-rule="evenodd">
        <g id="open-shop" transform="translate(-363.000000, -1277.000000)" fill="#4A4A4A">
            <g id="Inhalt" transform="translate(-41.000000, 404.000000)">
                <g id="row3" transform="translate(404.000000, 777.000000)">
                    <g id="add-unit" transform="translate(0.000000, 95.000000)">
                        <path d="M9,1.125 C10.2421937,1.125 11.4111273,1.35937266 12.5068359,1.828125 C13.6025445,2.29687734 14.5576131,2.93847249 15.3720703,3.75292969 C16.1865275,4.56738688 16.8281227,5.52245546 17.296875,6.61816406 C17.7656273,7.71387267 18,8.88280629 18,10.125 C18,11.3671937 17.7656273,12.5361273 17.296875,13.6318359 C16.8281227,14.7275445 16.1865275,15.6826131 15.3720703,16.4970703 C14.5576131,17.3115275 13.6025445,17.9531227 12.5068359,18.421875 C11.4111273,18.8906273 10.2421937,19.125 9,19.125 C7.75780629,19.125 6.58887267,18.8906273 5.49316406,18.421875 C4.39745546,17.9531227 3.44238688,17.3115275 2.62792969,16.4970703 C1.81347249,15.6826131 1.17187734,14.7275445 0.703125,13.6318359 C0.234372656,12.5361273 0,11.3671937 0,10.125 C0,8.88280629 0.234372656,7.71387267 0.703125,6.61816406 C1.17187734,5.52245546 1.81347249,4.56738688 2.62792969,3.75292969 C3.44238688,2.93847249 4.39745546,2.29687734 5.49316406,1.828125 C6.58887267,1.35937266 7.75780629,1.125 9,1.125 Z M9,18.0175781 C10.0898492,18.0175781 11.1122999,17.8095724 12.0673828,17.3935547 C13.0224657,16.977537 13.8544886,16.4121129 14.5634766,15.6972656 C15.2724645,14.9824183 15.8349589,14.1474657 16.2509766,13.1923828 C16.6669943,12.2372999 16.875,11.2148492 16.875,10.125 C16.875,9.0351508 16.6669943,8.01270009 16.2509766,7.05761719 C15.8349589,6.10253429 15.2724645,5.27051136 14.5634766,4.56152344 C13.8544886,3.85253552 13.0224657,3.29004114 12.0673828,2.87402344 C11.1122999,2.45800573 10.0898492,2.25 9,2.25 C7.9101508,2.25 6.88770009,2.45800573 5.93261719,2.87402344 C4.97753429,3.29004114 4.14551136,3.85253552 3.43652344,4.56152344 C2.72753552,5.27051136 2.16504114,6.10253429 1.74902344,7.05761719 C1.33300573,8.01270009 1.125,9.0351508 1.125,10.125 C1.125,11.2148492 1.33300573,12.2372999 1.74902344,13.1923828 C2.16504114,14.1474657 2.72753552,14.9824183 3.43652344,15.6972656 C4.14551136,16.4121129 4.97753429,16.977537 5.93261719,17.3935547 C6.88770009,17.8095724 7.9101508,18.0175781 9,18.0175781 Z M12.9375,9.5625 C13.0898445,9.5625 13.2216791,9.61816351 13.3330078,9.72949219 C13.4443365,9.84082087 13.5,9.97265549 13.5,10.125 C13.5,10.2773445 13.4443365,10.4091791 13.3330078,10.5205078 C13.2216791,10.6318365 13.0898445,10.6875 12.9375,10.6875 L9.5625,10.6875 L9.5625,14.0625 C9.5625,14.2148445 9.50683649,14.3466791 9.39550781,14.4580078 C9.28417913,14.5693365 9.15234451,14.625 9,14.625 C8.84765549,14.625 8.71582087,14.5693365 8.60449219,14.4580078 C8.49316351,14.3466791 8.4375,14.2148445 8.4375,14.0625 L8.4375,10.6875 L5.0625,10.6875 C4.91015549,10.6875 4.77832087,10.6318365 4.66699219,10.5205078 C4.55566351,10.4091791 4.5,10.2773445 4.5,10.125 C4.5,9.97265549 4.55566351,9.84082087 4.66699219,9.72949219 C4.77832087,9.61816351 4.91015549,9.5625 5.0625,9.5625 L8.4375,9.5625 L8.4375,6.1875 C8.4375,6.03515549 8.49316351,5.90332087 8.60449219,5.79199219 C8.71582087,5.68066351 8.84765549,5.625 9,5.625 C9.15234451,5.625 9.28417913,5.68066351 9.39550781,5.79199219 C9.50683649,5.90332087 9.5625,6.03515549 9.5625,6.1875 L9.5625,9.5625 L12.9375,9.5625 Z" id="plus---simple-line-icons"></path>
                    </g>
                </g>
            </g>
        </g>
    </g>
</svg>