<?xml version="1.0" encoding="UTF-8" standalone="no"?>
<svg width="20px" height="21px" viewBox="0 0 20 21" version="1.1" xmlns="http://www.w3.org/2000/svg" xmlns:xlink="http://www.w3.org/1999/xlink">
    <!-- Generator: Sketch 46.2 (44496) - http://www.bohemiancoding.com/sketch -->
    <title>pencil - simple-line-icons</title>
    <desc>Created with Sketch.</desc>
    <defs></defs>
    <g id="Page-1" stroke="none" stroke-width="1" fill="none" fill-rule="evenodd">
        <g id="booking-reservation-1" transform="translate(-762.000000, -2173.000000)" fill="#000000">
            <g id="Inhalt" transform="translate(-20.000000, 230.000000)">
                <g id="submit-button" transform="translate(714.000000, 1933.000000)">
                    <path d="M86.828125,11.2265625 C87.218752,11.5911477 87.5117178,11.9720032 87.7070312,12.3691406 C87.9023447,12.766278 88.0065104,13.1666646 88.0195312,13.5703125 C88.0325521,14.0000021 87.9414072,14.4199198 87.7460938,14.8300781 C87.5507803,15.2402364 87.2643248,15.640623 86.8867188,16.03125 C86.7044262,16.2265635 85.9752668,16.9557229 84.6992188,18.21875 C83.4231707,19.4817771 82.0462313,20.8456958 80.5683594,22.3105469 C79.0904874,23.7753979 77.7330791,25.1197855 76.4960938,26.34375 C75.2591084,27.5677145 74.5820318,28.2382807 74.4648438,28.3554688 C74.4257811,28.3945314 74.3834638,28.4270832 74.3378906,28.453125 C74.2923175,28.4791668 74.2434898,28.4986979 74.1914062,28.5117188 C74.0091137,28.5638023 73.6250029,28.6842438 73.0390625,28.8730469 C72.4531221,29.0618499 71.8509146,29.2539053 71.2324219,29.4492188 C70.6139292,29.6445322 70.0572941,29.8235669 69.5625,29.9863281 C69.0677059,30.1490894 68.8138021,30.2304688 68.8007812,30.2304688 C68.7747395,30.2434896 68.7454429,30.2532552 68.7128906,30.2597656 C68.6803384,30.2662761 68.6445314,30.2695312 68.6054688,30.2695312 C68.5273434,30.2695312 68.4492191,30.2532554 68.3710938,30.2207031 C68.2929684,30.1881509 68.2278648,30.1393232 68.1757812,30.0742188 C68.084635,29.9960934 68.0260418,29.8984381 68,29.78125 C67.9739582,29.6640619 67.9739582,29.5468756 68,29.4296875 C68.0130209,29.4166666 68.0911451,29.1725284 68.234375,28.6972656 C68.3776049,28.2220028 68.5436188,27.6718781 68.7324219,27.046875 C68.9212249,26.4218719 69.1035147,25.813154 69.2792969,25.2207031 C69.455079,24.6282522 69.5755205,24.2018242 69.640625,23.9414062 C69.6666668,23.8893227 69.6927082,23.840495 69.71875,23.7949219 C69.7447918,23.7493487 69.7773436,23.7070314 69.8164062,23.6679688 L75.8710938,17.6132812 C77.3945389,16.0898361 78.80403,14.6770898 80.0996094,13.375 C81.3951888,12.0729102 82.0885412,11.3828129 82.1796875,11.3046875 C82.3098965,11.1744785 82.5898416,10.9628921 83.0195312,10.6699219 C83.4492209,10.3769517 83.9765594,10.2304688 84.6015625,10.2304688 C85.0052104,10.2304688 85.3925763,10.3151033 85.7636719,10.484375 C86.1347675,10.6536467 86.4895816,10.90104 86.828125,11.2265625 Z M81.984375,13.296875 C81.3723928,13.8958363 80.5911506,14.6705682 79.640625,15.6210938 C78.6900994,16.5716193 77.7102915,17.5546824 76.7011719,18.5703125 C75.6920522,19.5859426 74.725265,20.555985 73.8007812,21.4804688 L71.59375,23.6875 C71.854168,23.7916672 72.1438786,23.9414053 72.4628906,24.1367188 C72.7819026,24.3320322 73.104165,24.5924463 73.4296875,24.9179688 C73.6901055,25.1914076 73.9082022,25.4680976 74.0839844,25.7480469 C74.2597665,26.0279962 74.3997391,26.2851551 74.5039062,26.5195312 C75.050784,25.9726535 75.7831985,25.2467493 76.7011719,24.3417969 C77.6191452,23.4368444 78.5794221,22.4863331 79.5820312,21.4902344 C80.5846404,20.4941356 81.557938,19.5273484 82.5019531,18.5898438 C83.4459683,17.6523391 84.2239553,16.8841176 84.8359375,16.2851562 C84.8229166,16.1809891 84.7480476,15.9368509 84.6113281,15.5527344 C84.4746087,15.1686179 84.2109395,14.781252 83.8203125,14.390625 C83.4296855,14.0130189 83.0651059,13.7460945 82.7265625,13.5898438 C82.3880191,13.433593 82.1406258,13.3359377 81.984375,13.296875 Z M70.734375,24.7421875 C70.5911451,25.2239607 70.3925794,25.8619752 70.1386719,26.65625 C69.8847644,27.4505248 69.6666676,28.1406221 69.484375,28.7265625 C70.0963572,28.531249 70.8059855,28.2968764 71.6132812,28.0234375 C72.420577,27.7499986 73.0390604,27.5416674 73.46875,27.3984375 C73.4036455,27.203124 73.2994799,26.962241 73.15625,26.6757812 C73.0130201,26.3893215 72.8046889,26.1093764 72.53125,25.8359375 C72.1666648,25.4713523 71.8216162,25.2076831 71.4960938,25.0449219 C71.1705713,24.8821606 70.9166676,24.7812502 70.734375,24.7421875 Z M85.96875,15.1328125 C86.229168,14.8723945 86.4244785,14.6119805 86.5546875,14.3515625 C86.6848965,14.0911445 86.75,13.8437512 86.75,13.609375 C86.75,13.3749988 86.6816413,13.1341158 86.5449219,12.8867188 C86.4082024,12.6393217 86.2096367,12.3919283 85.9492188,12.1445312 C85.7408844,11.9361969 85.5227876,11.7799484 85.2949219,11.6757812 C85.0670562,11.5716141 84.8359387,11.5195312 84.6015625,11.5195312 C84.1979146,11.5195312 83.8496108,11.6236969 83.5566406,11.8320312 C83.2636704,12.0403656 83.1041668,12.1640623 83.078125,12.203125 L82.9804688,12.3007812 C83.2278658,12.4049484 83.5013006,12.5514313 83.8007812,12.7402344 C84.1002619,12.9290374 84.4062484,13.1796859 84.71875,13.4921875 C85.0182307,13.7916682 85.2591137,14.0976547 85.4414062,14.4101562 C85.6236988,14.7226578 85.7604162,15.0091133 85.8515625,15.2695312 C85.8776043,15.2434895 85.9003905,15.217448 85.9199219,15.1914062 C85.9394532,15.1653645 85.9557291,15.1458334 85.96875,15.1328125 Z" id="pencil---simple-line-icons"></path>
                </g>
            </g>
        </g>
    </g>
</svg>