<?xml version="1.0" encoding="UTF-8" standalone="no"?>
<svg width="24px" height="21px" viewBox="0 0 24 21" version="1.1" xmlns="http://www.w3.org/2000/svg" xmlns:xlink="http://www.w3.org/1999/xlink">
    <!-- Generator: Sketch 46.2 (44496) - http://www.bohemiancoding.com/sketch -->
    <title>ship - FontAwesome</title>
    <desc>Created with Sketch.</desc>
    <defs></defs>
    <g id="Page-1" stroke="none" stroke-width="1" fill="none" fill-rule="evenodd">
        <g id="booking-reservation-1" transform="translate(-881.000000, -498.000000)" fill="#2C2C2C">
            <g id="conncection" transform="translate(810.000000, 498.000000)">
                <path d="M92.2226562,18.2226562 C92.3710945,18.074218 92.546874,18 92.75,18 C92.953126,18 93.1289055,18.074218 93.2773438,18.2226562 L94.7773438,19.7226562 L93.7226562,20.7773438 L92.75,19.8046875 L91.7773438,20.7773438 C91.636718,20.925782 91.4609386,21 91.25,21 C91.0390614,21 90.863282,20.925782 90.7226562,20.7773438 L89.75,19.8046875 L88.7773438,20.7773438 C88.6289055,20.925782 88.453126,21 88.25,21 C88.046874,21 87.8710945,20.925782 87.7226562,20.7773438 L86.75,19.8046875 L85.7773438,20.7773438 C85.6289055,20.925782 85.453126,21 85.25,21 C85.046874,21 84.8710945,20.925782 84.7226562,20.7773438 L83.75,19.8046875 L82.7773438,20.7773438 C82.6289055,20.925782 82.453126,21 82.25,21 C82.046874,21 81.8710945,20.925782 81.7226562,20.7773438 L80.75,19.8046875 L79.7773438,20.7773438 C79.6289055,20.925782 79.453126,21 79.25,21 C79.046874,21 78.8710945,20.925782 78.7226562,20.7773438 L77.75,19.8046875 L76.7773438,20.7773438 C76.6289055,20.925782 76.453126,21 76.25,21 C76.046874,21 75.8710945,20.925782 75.7226562,20.7773438 L74.75,19.8046875 L73.7773438,20.7773438 C73.6289055,20.925782 73.453126,21 73.25,21 C73.046874,21 72.8710945,20.925782 72.7226562,20.7773438 L71.2226562,19.2773438 L72.2773438,18.2226562 L73.25,19.1953125 L74.2226562,18.2226562 C74.3710945,18.074218 74.546874,18 74.75,18 C74.953126,18 75.1289055,18.074218 75.2773438,18.2226562 L76.25,19.1953125 L77.2226562,18.2226562 C77.3710945,18.074218 77.546874,18 77.75,18 C77.953126,18 78.1289055,18.074218 78.2773438,18.2226562 L79.25,19.1953125 L80.2226562,18.2226562 C80.3710945,18.074218 80.546874,18 80.75,18 C80.953126,18 81.1289055,18.074218 81.2773438,18.2226562 L82.25,19.1953125 L83.2226562,18.2226562 C83.3710945,18.074218 83.546874,18 83.75,18 C83.953126,18 84.1289055,18.074218 84.2773438,18.2226562 L85.25,19.1953125 L86.2226562,18.2226562 C86.3710945,18.074218 86.546874,18 86.75,18 C86.953126,18 87.1289055,18.074218 87.2773438,18.2226562 L88.25,19.1953125 L89.2226562,18.2226562 C89.3710945,18.074218 89.546874,18 89.75,18 C89.953126,18 90.1289055,18.074218 90.2773438,18.2226562 L91.25,19.1953125 L92.2226562,18.2226562 Z M73.7773438,17.7773438 C73.6289055,17.925782 73.453126,18 73.25,18 C73.046874,18 72.8710945,17.925782 72.7226562,17.7773438 L71.2226562,16.2773438 L72.2773438,15.2226562 L73.25,16.1835938 L74.2226562,15.2226562 C74.3710945,15.074218 74.546874,15 74.75,15 C74.953126,15 75.1289055,15.074218 75.2773438,15.2226562 L76.25,16.1835938 L77,15.4335938 L77,12 L74.5390625,8.3203125 C74.4062493,8.11718648 74.3789059,7.89648557 74.4570312,7.65820312 C74.5351566,7.41992068 74.6914051,7.26171914 74.9257812,7.18359375 L77,6.50390625 L77,3 L78.5,3 L78.5,1.5 L81.5,1.5 L81.5,0 L84.5,0 L84.5,1.5 L87.5,1.5 L87.5,3 L89,3 L89,6.50390625 L91.0742188,7.18359375 C91.3085949,7.26171914 91.4648434,7.41992068 91.5429688,7.65820312 C91.6210941,7.89648557 91.5937507,8.11718648 91.4609375,8.3203125 L89,12 L89,15.4335938 L89.2226562,15.2226562 C89.3710945,15.074218 89.546874,15 89.75,15 C89.953126,15 90.1289055,15.074218 90.2773438,15.2226562 L91.25,16.1835938 L92.2226562,15.2226562 C92.3710945,15.074218 92.546874,15 92.75,15 C92.953126,15 93.1289055,15.074218 93.2773438,15.2226562 L94.7773438,16.7226562 L93.7226562,17.7773438 L92.75,16.8046875 L91.7773438,17.7773438 C91.636718,17.925782 91.4609386,18 91.25,18 C91.0390614,18 90.863282,17.925782 90.7226562,17.7773438 L89.75,16.8046875 L88.7773438,17.7773438 C88.6289055,17.925782 88.453126,18 88.25,18 C88.046874,18 87.8710945,17.925782 87.7226562,17.7773438 L86.75,16.8046875 L85.7773438,17.7773438 C85.6289055,17.925782 85.453126,18 85.25,18 C85.046874,18 84.8710945,17.925782 84.7226562,17.7773438 L83.75,16.8046875 L82.7773438,17.7773438 C82.6289055,17.925782 82.453126,18 82.25,18 C82.046874,18 81.8710945,17.925782 81.7226562,17.7773438 L80.75,16.8046875 L79.7773438,17.7773438 C79.6289055,17.925782 79.453126,18 79.25,18 C79.046874,18 78.8710945,17.925782 78.7226562,17.7773438 L77.75,16.8046875 L76.7773438,17.7773438 C76.6289055,17.925782 76.453126,18 76.25,18 C76.046874,18 75.8710945,17.925782 75.7226562,17.7773438 L74.75,16.8046875 L73.7773438,17.7773438 Z M78.5,4.5 L78.5,6 L83,4.5 L87.5,6 L87.5,4.5 L86,4.5 L86,3 L80,3 L80,4.5 L78.5,4.5 Z" id="ship---FontAwesome"></path>
            </g>
        </g>
    </g>
</svg>