<?xml version="1.0" encoding="UTF-8" standalone="no"?>
<svg width="20px" height="21px" viewBox="0 0 20 21" version="1.1" xmlns="http://www.w3.org/2000/svg" xmlns:xlink="http://www.w3.org/1999/xlink">
    <!-- Generator: Sketch 46.2 (44496) - http://www.bohemiancoding.com/sketch -->
    <title>login - simple-line-icons</title>
    <desc>Created with Sketch.</desc>
    <defs></defs>
    <g id="Page-1" stroke="none" stroke-width="1" fill="none" fill-rule="evenodd">
        <g id="Custom-Preset" transform="translate(-1547.000000, -56.000000)" fill="#FFFFFF">
            <g id="sign-in" transform="translate(1547.000000, 55.000000)">
                <path d="M10.4101562,14.1601562 L12.6953125,11.875 L0.625,11.875 C0.45572832,11.875 0.30924541,11.8131517 0.185546875,11.6894531 C0.0618483398,11.5657546 0,11.4192717 0,11.25 C0,11.0677074 0.0618483398,10.9179693 0.185546875,10.8007812 C0.30924541,10.6835932 0.45572832,10.625 0.625,10.625 L12.65625,10.625 L10.4101562,8.359375 C10.2799473,8.24218691 10.2148438,8.095704 10.2148438,7.91992188 C10.2148438,7.74413975 10.2799473,7.59765684 10.4101562,7.48046875 C10.5273443,7.35025977 10.6705721,7.28515625 10.8398438,7.28515625 C11.0091154,7.28515625 11.1588535,7.35025977 11.2890625,7.48046875 L14.9804688,11.2695312 L11.2890625,15.0585938 C11.223958,15.1106773 11.1523441,15.1529946 11.0742188,15.1855469 C10.9960934,15.2180991 10.9179691,15.234375 10.8398438,15.234375 C10.7617184,15.234375 10.6835941,15.2180991 10.6054688,15.1855469 C10.5273434,15.1529946 10.4622398,15.1106773 10.4101562,15.0585938 C10.2799473,14.9283848 10.2148438,14.7786467 10.2148438,14.609375 C10.2148438,14.4401033 10.2799473,14.2903652 10.4101562,14.1601562 Z M18.75,1.25 C19.1015643,1.25 19.3977853,1.3704415 19.6386719,1.61132812 C19.8795585,1.85221475 20,2.14843574 20,2.5 L20,20 C20,20.3515643 19.8795585,20.6477853 19.6386719,20.8886719 C19.3977853,21.1295585 19.1015643,21.25 18.75,21.25 L7.5,21.25 C7.16145664,21.25 6.86849082,21.1295585 6.62109375,20.8886719 C6.37369668,20.6477853 6.25,20.3515643 6.25,20 L6.25,14.3554688 L7.51953125,14.3554688 L7.51953125,19.2382812 C7.51953125,19.4466156 7.59114512,19.6256503 7.734375,19.7753906 C7.87760488,19.925131 8.05338438,20 8.26171875,20 L17.9882812,20 C18.1966156,20 18.3756503,19.925131 18.5253906,19.7753906 C18.675131,19.6256503 18.75,19.4466156 18.75,19.2382812 L18.7304688,3.26171875 C18.7304688,3.05338438 18.6555997,2.87434971 18.5058594,2.72460938 C18.356119,2.57486904 18.1770844,2.5 17.96875,2.5 L8.26171875,2.5 C8.05338438,2.5 7.87760488,2.57486904 7.734375,2.72460938 C7.59114512,2.87434971 7.51953125,3.05338438 7.51953125,3.26171875 L7.51953125,8.125 L6.25,8.125 L6.25,2.5 C6.25,2.14843574 6.37369668,1.85221475 6.62109375,1.61132812 C6.86849082,1.3704415 7.16145664,1.25 7.5,1.25 L18.75,1.25 Z" id="login---simple-line-icons"></path>
            </g>
        </g>
    </g>
</svg>