<?xml version="1.0" encoding="UTF-8" standalone="no"?>
<svg width="20px" height="20px" viewBox="0 0 20 20" version="1.1" xmlns="http://www.w3.org/2000/svg" xmlns:xlink="http://www.w3.org/1999/xlink">
    <!-- Generator: Sketch 46.2 (44496) - http://www.bohemiancoding.com/sketch -->
    <title></title>
    <desc>Created with Sketch.</desc>
    <defs></defs>
    <g id="Page-1" stroke="none" stroke-width="1" fill="none" fill-rule="evenodd">
        <g id="open-shop-order" transform="translate(-801.000000, -479.000000)" fill="#FFFFFF">
            <g id="Pricefilter" transform="translate(693.000000, 465.000000)">
                <g id="Günstig">
                    <path d="M118,15.7539062 L115.714844,20.5 L115.304688,21.3398438 L109.210938,22.2382812 L113.625,26.6523438 L113.488281,27.53125 L112.589844,32.8046875 L118,29.9140625 L123.410156,32.8046875 L122.511719,27.53125 L122.375,26.6523438 L126.789062,22.2382812 L120.675781,21.3398438 L118,15.7539062 Z M118,14.5625 C118.28646,14.5625 118.546874,14.6341139 118.78125,14.7773438 C119.015626,14.9205736 119.191406,15.1158842 119.308594,15.3632812 L121.574219,20.0703125 L126.789062,20.8320312 C127.04948,20.8710939 127.283853,20.9752596 127.492188,21.1445312 C127.700522,21.3138029 127.85026,21.5286445 127.941406,21.7890625 C128.019532,22.0364596 128.029297,22.2871081 127.970703,22.5410156 C127.912109,22.7949231 127.785157,23.0195303 127.589844,23.2148438 L123.78125,27.0234375 L124.660156,32.3164062 C124.71224,32.5768242 124.682943,32.8307279 124.572266,33.078125 C124.461588,33.3255221 124.295574,33.527343 124.074219,33.6835938 C123.94401,33.77474 123.807292,33.8398436 123.664062,33.8789062 C123.520833,33.9179689 123.377605,33.9375 123.234375,33.9375 C123.117187,33.9375 123.000001,33.9244793 122.882812,33.8984375 C122.765624,33.8723957 122.648438,33.8268232 122.53125,33.7617188 L118,31.3203125 L113.449219,33.7617188 C113.345052,33.8268232 113.234376,33.8723957 113.117188,33.8984375 C112.999999,33.9244793 112.882813,33.9375 112.765625,33.9375 C112.609374,33.9375 112.462891,33.9179689 112.326172,33.8789062 C112.189452,33.8398436 112.05599,33.77474 111.925781,33.6835938 C111.704426,33.527343 111.538412,33.3255221 111.427734,33.078125 C111.317057,32.8307279 111.28776,32.5768242 111.339844,32.3164062 L112.21875,27.0234375 L108.410156,23.2148438 C108.214843,23.0195303 108.087891,22.7949231 108.029297,22.5410156 C107.970703,22.2871081 107.980468,22.0364596 108.058594,21.7890625 C108.14974,21.5416654 108.299478,21.330079 108.507812,21.1542969 C108.716147,20.9785147 108.95052,20.8710939 109.210938,20.8320312 L114.425781,20.0703125 L116.691406,15.3632812 C116.808594,15.1158842 116.984374,14.9205736 117.21875,14.7773438 C117.453126,14.6341139 117.71354,14.5625 118,14.5625 Z" id=""></path>
                </g>
            </g>
        </g>
    </g>
</svg>