<?xml version="1.0" encoding="UTF-8" standalone="no"?>
<svg width="27px" height="22px" viewBox="0 0 27 22" version="1.1" xmlns="http://www.w3.org/2000/svg" xmlns:xlink="http://www.w3.org/1999/xlink">
    <!-- Generator: Sketch 46.2 (44496) - http://www.bohemiancoding.com/sketch -->
    <title>truck - FontAwesome</title>
    <desc>Created with Sketch.</desc>
    <defs>
        <linearGradient x1="0%" y1="50%" x2="96.8365779%" y2="50%" id="linearGradient-1">
            <stop stop-color="#06CA52" offset="0%"></stop>
            <stop stop-color="#0CA7F7" offset="100%"></stop>
        </linearGradient>
    </defs>
    <g id="Symbols" stroke="none" stroke-width="1" fill="none" fill-rule="evenodd">
        <g id="status-leiste-2" transform="translate(-24.000000, -226.000000)" fill="url(#linearGradient-1)">
            <g id="status-leiste" transform="translate(9.000000, 68.000000)">
                <g id="ocean" transform="translate(15.000000, 157.000000)">
                    <path d="M9.64285714,19.0714286 C9.64285714,18.5491045 9.45201084,18.0971001 9.0703125,17.7154018 C8.68861416,17.3337034 8.23660975,17.1428571 7.71428571,17.1428571 C7.19196167,17.1428571 6.73995727,17.3337034 6.35825893,17.7154018 C5.97656059,18.0971001 5.78571429,18.5491045 5.78571429,19.0714286 C5.78571429,19.5937526 5.97656059,20.045757 6.35825893,20.4274554 C6.73995727,20.8091537 7.19196167,21 7.71428571,21 C8.23660975,21 8.68861416,20.8091537 9.0703125,20.4274554 C9.45201084,20.045757 9.64285714,19.5937526 9.64285714,19.0714286 Z M3.85714286,11.3571429 L9.64285714,11.3571429 L9.64285714,7.5 L7.26227679,7.5 C7.13169578,7.5 7.02120581,7.54520044 6.93080357,7.63560268 L3.99274554,10.5736607 C3.9023433,10.664063 3.85714286,10.7745529 3.85714286,10.9051339 L3.85714286,11.3571429 Z M23.1428571,19.0714286 C23.1428571,18.5491045 22.9520108,18.0971001 22.5703125,17.7154018 C22.1886142,17.3337034 21.7366098,17.1428571 21.2142857,17.1428571 C20.6919617,17.1428571 20.2399573,17.3337034 19.8582589,17.7154018 C19.4765606,18.0971001 19.2857143,18.5491045 19.2857143,19.0714286 C19.2857143,19.5937526 19.4765606,20.045757 19.8582589,20.4274554 C20.2399573,20.8091537 20.6919617,21 21.2142857,21 C21.7366098,21 22.1886142,20.8091537 22.5703125,20.4274554 C22.9520108,20.045757 23.1428571,19.5937526 23.1428571,19.0714286 Z M27,2.67857143 L27,18.1071429 C27,18.2578133 26.9799109,18.3909034 26.9397321,18.5064174 C26.8995534,18.6219314 26.8317527,18.7148434 26.7363281,18.7851563 C26.6409035,18.8554691 26.5580361,18.9132252 26.4877232,18.9584263 C26.4174104,19.0036275 26.299387,19.0337611 26.1336496,19.0488281 C25.9679121,19.0638952 25.854911,19.0739397 25.7946429,19.0789621 C25.7343747,19.0839844 25.6063068,19.0839844 25.4104353,19.0789621 C25.2145638,19.0739397 25.1015627,19.0714286 25.0714286,19.0714286 C25.0714286,20.136166 24.6947582,21.0451971 23.9414062,21.7985491 C23.1880543,22.5519011 22.2790232,22.9285714 21.2142857,22.9285714 C20.1495482,22.9285714 19.2405172,22.5519011 18.4871652,21.7985491 C17.7338132,21.0451971 17.3571429,20.136166 17.3571429,19.0714286 L11.5714286,19.0714286 C11.5714286,20.136166 11.1947582,21.0451971 10.4414062,21.7985491 C9.68805427,22.5519011 8.77902318,22.9285714 7.71428571,22.9285714 C6.64954825,22.9285714 5.74051716,22.5519011 4.98716518,21.7985491 C4.2338132,21.0451971 3.85714286,20.136166 3.85714286,19.0714286 L2.89285714,19.0714286 C2.86272306,19.0714286 2.74972196,19.0739397 2.55385045,19.0789621 C2.35797893,19.0839844 2.22991102,19.0839844 2.16964286,19.0789621 C2.1093747,19.0739397 1.9963736,19.0638952 1.83063616,19.0488281 C1.66489872,19.0337611 1.54687535,19.0036275 1.4765625,18.9584263 C1.40624965,18.9132252 1.32338217,18.8554691 1.22795759,18.7851563 C1.13253301,18.7148434 1.06473234,18.6219314 1.02455357,18.5064174 C0.984374799,18.3909034 0.964285714,18.2578133 0.964285714,18.1071429 C0.964285714,17.8459808 1.05970887,17.6199786 1.25055804,17.4291295 C1.4414072,17.2382803 1.66740941,17.1428571 1.92857143,17.1428571 L1.92857143,12.3214286 C1.92857143,12.241071 1.92606029,12.0652915 1.92103795,11.7940848 C1.9160156,11.5228781 1.9160156,11.3320318 1.92103795,11.2215402 C1.92606029,11.1110486 1.93861597,10.9377802 1.95870536,10.7017299 C1.97879474,10.4656796 2.01143951,10.2798556 2.05664062,10.1442522 C2.10184174,10.0086489 2.17215354,9.8554696 2.26757812,9.68470982 C2.36300271,9.51395004 2.47600381,9.3632819 2.60658482,9.23270089 L5.58984375,6.24944196 C5.78069292,6.0585928 6.03431761,5.89788012 6.35072545,5.76729911 C6.66713328,5.6367181 6.96093614,5.57142857 7.23214286,5.57142857 L9.64285714,5.57142857 L9.64285714,2.67857143 C9.64285714,2.41740941 9.7382803,2.1914072 9.92912946,2.00055804 C10.1199786,1.80970887 10.3459808,1.71428571 10.6071429,1.71428571 L26.0357143,1.71428571 C26.2968763,1.71428571 26.5228785,1.80970887 26.7137277,2.00055804 C26.9045768,2.1914072 27,2.41740941 27,2.67857143 Z" id="truck---FontAwesome" transform="translate(13.982143, 12.321429) scale(-1, 1) translate(-13.982143, -12.321429) "></path>
                </g>
            </g>
        </g>
    </g>
</svg>