<?xml version="1.0" encoding="UTF-8" standalone="no"?>
<svg width="44px" height="21px" viewBox="0 0 44 21" version="1.1" xmlns="http://www.w3.org/2000/svg" xmlns:xlink="http://www.w3.org/1999/xlink">
    <!-- Generator: Sketch 46.2 (44496) - http://www.bohemiancoding.com/sketch -->
    <title>mot</title>
    <desc>Created with Sketch.</desc>
    <defs>
        <linearGradient x1="0%" y1="50%" x2="20.7182949%" y2="50%" id="linearGradient-1">
            <stop stop-color="#06CA52" offset="0%"></stop>
            <stop stop-color="#0CA7F7" offset="100%"></stop>
        </linearGradient>
    </defs>
    <g id="Symbols" stroke="none" stroke-width="1" fill="none" fill-rule="evenodd">
        <g id="status-leiste-2" transform="translate(-9.000000, -172.000000)" fill="url(#linearGradient-1)">
            <g id="status-leiste" transform="translate(9.000000, 68.000000)">
                <g id="ocean" transform="translate(0.000000, 105.000000)">
                    <g id="mot" transform="translate(0.000000, -1.000000)">
                        <path d="M1.62718067,14.25 C1.92039382,14.4369544 2.27480729,14.6596089 2.69042969,14.9179688 C3.14811427,15.2024754 3.59960715,15.4807929 4.04492188,15.7529297 L4.28613281,15.9199219 L4.453125,16.1611328 C4.55208383,16.3219409 4.74381368,16.6311826 5.02832031,17.0888672 C5.31282694,17.5465518 5.5787748,17.9671205 5.82617188,18.3505859 C5.85091158,18.4000654 5.87565092,18.4464516 5.90039062,18.4897461 C5.92513033,18.5330406 5.94986967,18.573242 5.97460938,18.6103516 C5.98697923,18.6103516 5.97770198,18.6072591 5.94677734,18.6010742 C5.91585271,18.5948893 5.90657546,18.585612 5.91894531,18.5732422 L5.91894531,15.4375 L6.27148438,15.0849609 L8.68359375,12.765625 L10.0009766,11.4482422 L10.6503906,13.1923828 C10.7740892,13.5387387 10.9163403,13.9345681 11.0771484,14.3798828 C11.2379565,14.8251975 11.4049471,15.2797828 11.578125,15.7436523 C11.7513029,16.2075219 11.915201,16.6497375 12.0698242,17.0703125 C12.2244474,17.4908875 12.3574213,17.8496079 12.46875,18.1464844 C12.6048184,17.9980461 12.7470696,17.8403329 12.8955078,17.6733398 C13.0439461,17.5063468 13.1614579,17.3733729 13.2480469,17.2744141 C13.2851564,17.2249346 13.3068034,17.1878256 13.3129883,17.1630859 C13.3191732,17.1383462 13.3222656,17.1074221 13.3222656,17.0703125 C13.3098958,17.0084632 13.2851564,16.6682974 13.2480469,16.0498047 C13.2109373,15.431312 13.1738283,14.7447954 13.1367188,13.9902344 C13.0748695,13.1367145 13.019206,12.2584681 12.9697266,11.3554688 C12.9202471,10.4524694 12.8769533,9.72265903 12.8398438,9.16601562 L12.8027344,8.64648438 L17.0888672,4.36035156 C17.5094422,3.93977654 17.7320962,3.54703958 17.7568359,3.18212891 C17.7815756,2.81721823 17.7753908,2.57910212 17.7382813,2.46777344 C17.7011717,2.45540358 17.6486006,2.44303392 17.5805664,2.43066406 C17.5125322,2.41829421 17.429037,2.41210938 17.3300781,2.41210938 C17.1816399,2.41210938 16.9713555,2.4523108 16.6992188,2.53271484 C16.427082,2.61311889 16.1425796,2.80175633 15.8457031,3.09863281 L11.5595703,7.38476562 L11.0214844,7.34765625 C10.4895807,7.32291654 9.79378685,7.28271512 8.93408203,7.22705078 C8.07437721,7.17138644 7.23014737,7.11263052 6.40136719,7.05078125 C5.60969656,7.00130184 4.87370132,6.95491558 4.19335938,6.91162109 C3.51301743,6.86832661 3.13574256,6.84667969 3.06152344,6.84667969 L3.02441406,6.84667969 C3.01204421,6.84667969 2.99348971,6.85286452 2.96875,6.86523438 C2.94401029,6.87760423 2.91927096,6.89615873 2.89453125,6.92089844 C2.78320257,7.00748741 2.64713622,7.12190684 2.48632812,7.26416016 C2.32552003,7.40641347 2.17089918,7.55175707 2.02246094,7.70019531 C2.30696757,7.81152399 2.66568794,7.94759034 3.09863281,8.10839844 C3.53157769,8.26920653 3.98307057,8.43619705 4.453125,8.609375 C4.92317943,8.78255295 5.38394957,8.95263588 5.83544922,9.11962891 C6.28694887,9.28662193 6.67968583,9.43196553 7.01367188,9.55566406 L8.7578125,10.1865234 L7.44042969,11.5039062 L5.10253906,13.9160156 L4.76855469,14.25 L4.28613281,14.2685547 L3.89648438,14.2685547 C3.68619687,14.2685547 3.45735801,14.2654623 3.20996094,14.2592773 C2.96256387,14.2530924 2.72135534,14.25 2.48632812,14.25 L1.62718067,14.25 L1.62718067,14.25 Z M17.3300781,1.22460938 C17.6145848,1.22460938 17.8650705,1.26171838 18.081543,1.3359375 C18.2980154,1.41015662 18.4680983,1.50911396 18.5917969,1.6328125 C18.8391939,1.88020957 18.965983,2.36262662 18.972168,3.08007812 C18.9783529,3.79752963 18.6350946,4.5026007 17.9423828,5.1953125 L14.0273438,9.11035156 C14.0520835,9.65462512 14.0922849,10.365881 14.1479492,11.2441406 C14.2036136,12.1224002 14.2561846,12.9851846 14.3056641,13.8325195 C14.3551435,14.6798545 14.3984373,15.4158497 14.4355469,16.0405273 C14.4726564,16.6652049 14.4912109,16.9899087 14.4912109,17.0146484 C14.5035808,17.1136073 14.497396,17.2496736 14.4726562,17.4228516 C14.4479165,17.5960295 14.3427744,17.7939442 14.1572266,18.0166016 C13.9716788,18.2392589 13.721193,18.5206689 13.4057617,18.8608398 L12.9326172,19.3710938 C12.8336584,19.4700526 12.7254238,19.547363 12.6079102,19.6030273 C12.4903965,19.6586917 12.3759771,19.6865234 12.2646484,19.6865234 L12.171875,19.6865234 C12.0976559,19.6741536 12.001791,19.6370446 11.8842773,19.5751953 C11.7667637,19.513346 11.6708988,19.3896494 11.5966797,19.2041016 C11.57194,19.1422523 11.4791675,18.8948589 11.3183594,18.4619141 C11.1575513,18.0289692 10.9689138,17.5249052 10.7524414,16.949707 C10.535969,16.3745088 10.3164074,15.7776724 10.09375,15.1591797 C9.87109264,14.540687 9.67936278,14.021161 9.51855469,13.6005859 L7.10644531,15.9384766 C7.09407546,16.2724626 7.09098304,16.7610645 7.09716797,17.4042969 C7.1033529,18.0475293 7.10026048,18.4742828 7.08789062,18.6845703 C7.08789062,18.7464196 7.07861337,18.860839 7.06005859,19.027832 C7.04150381,19.1948251 6.87142088,19.4638653 6.54980469,19.8349609 C6.43847601,19.9339198 6.32714899,20.0112302 6.21582031,20.0668945 C6.10449163,20.1225589 5.99934945,20.1503906 5.90039062,20.1503906 L5.88183594,20.1503906 C5.77050726,20.1503906 5.6684575,20.1225589 5.57568359,20.0668945 C5.48290969,20.0112302 5.40559927,19.9339198 5.34375,19.8349609 C5.33138015,19.8102212 5.23860764,19.6617852 5.06542969,19.3896484 C4.89225174,19.1175117 4.69742947,18.80827 4.48095703,18.4619141 C4.26448459,18.1155582 4.05729266,17.7815771 3.859375,17.4599609 C3.66145734,17.1383447 3.51920616,16.9095059 3.43261719,16.7734375 C2.75227524,16.3652323 2.07194351,15.9446636 1.39160156,15.5117188 C0.711259619,15.0787739 0.34016958,14.8375654 0.278320312,14.7880859 C0.166991631,14.701497 0.09586604,14.6087245 0.0649414062,14.5097656 C0.0340167725,14.4108068 0.0185546875,14.3242191 0.0185546875,14.25 C0.0185546875,14.1757809 0.0371091895,14.0861008 0.07421875,13.980957 C0.111328311,13.8758133 0.185546318,13.7675787 0.296875,13.65625 L0.352539062,13.6005859 C0.711264814,13.3037095 0.974120259,13.1398114 1.14111328,13.1088867 C1.3081063,13.0779621 1.42871057,13.0625 1.50292969,13.0625 L1.6328125,13.0625 C1.85546986,13.0625 2.19872815,13.0655924 2.66259766,13.0717773 C3.12646716,13.0779623 3.53775862,13.0810547 3.89648438,13.0810547 L4.26757812,13.0810547 L6.60546875,10.6689453 C6.17252388,10.5081372 5.64681299,10.3133149 5.02832031,10.0844727 C4.40982764,9.85563037 3.80989874,9.63297634 3.22851562,9.41650391 C2.64713251,9.20003147 2.13688371,9.00830162 1.69775391,8.84130859 C1.25862411,8.67431557 1.01432316,8.58463548 0.96484375,8.57226562 C0.766926094,8.4980465 0.63704458,8.39908916 0.575195312,8.27539062 C0.513346045,8.15169209 0.482421875,8.05273475 0.482421875,7.97851562 C0.457682168,7.84244724 0.473144253,7.70947331 0.528808594,7.57958984 C0.584472935,7.44970638 0.667968193,7.32910212 0.779296875,7.21777344 L1.28955078,6.74462891 C1.62972175,6.42919764 1.9111317,6.17871187 2.13378906,5.99316406 C2.31933687,5.84472582 2.4894198,5.75195331 2.64404297,5.71484375 C2.79866614,5.67773419 2.92545523,5.65917969 3.02441406,5.65917969 L3.1171875,5.65917969 C3.15429706,5.65917969 3.4882781,5.67773419 4.11914062,5.71484375 C4.75000315,5.75195331 5.48909082,5.79833957 6.33642578,5.85400391 C7.18376075,5.90966825 8.05272992,5.96842417 8.94335938,6.03027344 C9.83398883,6.09212271 10.5514296,6.13541654 11.0957031,6.16015625 L15.0107422,2.26367188 C15.3942076,1.88020642 15.790037,1.61116614 16.1982422,1.45654297 C16.6064474,1.3019198 16.9837222,1.22460938 17.3300781,1.22460938 Z" id="plane---simple-line-icons"></path>
                        <path d="M41.2120536,18.2120536 C41.3534233,18.0706838 41.5208324,18 41.7142857,18 C41.9077391,18 42.0751481,18.0706838 42.2165179,18.2120536 L43.6450893,19.640625 L42.640625,20.6450893 L41.7142857,19.71875 L40.7879464,20.6450893 C40.6540172,20.786459 40.4866081,20.8571429 40.2857143,20.8571429 C40.0848204,20.8571429 39.9174114,20.786459 39.7834821,20.6450893 L38.8571429,19.71875 L37.9308036,20.6450893 C37.7894338,20.786459 37.6220248,20.8571429 37.4285714,20.8571429 C37.2351181,20.8571429 37.067709,20.786459 36.9263393,20.6450893 L36,19.71875 L35.0736607,20.6450893 C34.932291,20.786459 34.7648819,20.8571429 34.5714286,20.8571429 C34.3779752,20.8571429 34.2105662,20.786459 34.0691964,20.6450893 L33.1428571,19.71875 L32.2165179,20.6450893 C32.0751481,20.786459 31.9077391,20.8571429 31.7142857,20.8571429 C31.5208324,20.8571429 31.3534233,20.786459 31.2120536,20.6450893 L30.2857143,19.71875 L29.359375,20.6450893 C29.2180052,20.786459 29.0505962,20.8571429 28.8571429,20.8571429 C28.6636895,20.8571429 28.4962805,20.786459 28.3549107,20.6450893 L27.4285714,19.71875 L26.5022321,20.6450893 C26.3608624,20.786459 26.1934533,20.8571429 26,20.8571429 C25.8065467,20.8571429 25.6391376,20.786459 25.4977679,20.6450893 L24.5714286,19.71875 L23.6450893,20.6450893 C23.5037195,20.786459 23.3363105,20.8571429 23.1428571,20.8571429 C22.9494038,20.8571429 22.7819948,20.786459 22.640625,20.6450893 L21.2120536,19.2165179 L22.2165179,18.2120536 L23.1428571,19.1383929 L24.0691964,18.2120536 C24.2105662,18.0706838 24.3779752,18 24.5714286,18 C24.7648819,18 24.932291,18.0706838 25.0736607,18.2120536 L26,19.1383929 L26.9263393,18.2120536 C27.067709,18.0706838 27.2351181,18 27.4285714,18 C27.6220248,18 27.7894338,18.0706838 27.9308036,18.2120536 L28.8571429,19.1383929 L29.7834821,18.2120536 C29.9248519,18.0706838 30.0922609,18 30.2857143,18 C30.4791676,18 30.6465767,18.0706838 30.7879464,18.2120536 L31.7142857,19.1383929 L32.640625,18.2120536 C32.7819948,18.0706838 32.9494038,18 33.1428571,18 C33.3363105,18 33.5037195,18.0706838 33.6450893,18.2120536 L34.5714286,19.1383929 L35.4977679,18.2120536 C35.6391376,18.0706838 35.8065467,18 36,18 C36.1934533,18 36.3608624,18.0706838 36.5022321,18.2120536 L37.4285714,19.1383929 L38.3549107,18.2120536 C38.4962805,18.0706838 38.6636895,18 38.8571429,18 C39.0505962,18 39.2180052,18.0706838 39.359375,18.2120536 L40.2857143,19.1383929 L41.2120536,18.2120536 Z M23.6450893,17.7879464 C23.5037195,17.9293162 23.3363105,18 23.1428571,18 C22.9494038,18 22.7819948,17.9293162 22.640625,17.7879464 L21.2120536,16.359375 L22.2165179,15.3549107 L23.1428571,16.2700893 L24.0691964,15.3549107 C24.2105662,15.213541 24.3779752,15.1428571 24.5714286,15.1428571 C24.7648819,15.1428571 24.932291,15.213541 25.0736607,15.3549107 L26,16.2700893 L26.7142857,15.5558036 L26.7142857,12.2857143 L24.3705357,8.78125 C24.244047,8.58779665 24.2180056,8.3776053 24.2924107,8.15066964 C24.3668158,7.92373398 24.5156239,7.77306585 24.7388393,7.69866071 L26.7142857,7.05133929 L26.7142857,3.71428571 L28.1428571,3.71428571 L28.1428571,2.28571429 L31,2.28571429 L31,0.857142857 L33.8571429,0.857142857 L33.8571429,2.28571429 L36.7142857,2.28571429 L36.7142857,3.71428571 L38.1428571,3.71428571 L38.1428571,7.05133929 L40.1183036,7.69866071 C40.341519,7.77306585 40.490327,7.92373398 40.5647321,8.15066964 C40.6391373,8.3776053 40.6130959,8.58779665 40.4866071,8.78125 L38.1428571,12.2857143 L38.1428571,15.5558036 L38.3549107,15.3549107 C38.4962805,15.213541 38.6636895,15.1428571 38.8571429,15.1428571 C39.0505962,15.1428571 39.2180052,15.213541 39.359375,15.3549107 L40.2857143,16.2700893 L41.2120536,15.3549107 C41.3534233,15.213541 41.5208324,15.1428571 41.7142857,15.1428571 C41.9077391,15.1428571 42.0751481,15.213541 42.2165179,15.3549107 L43.6450893,16.7834821 L42.640625,17.7879464 L41.7142857,16.8616071 L40.7879464,17.7879464 C40.6540172,17.9293162 40.4866081,18 40.2857143,18 C40.0848204,18 39.9174114,17.9293162 39.7834821,17.7879464 L38.8571429,16.8616071 L37.9308036,17.7879464 C37.7894338,17.9293162 37.6220248,18 37.4285714,18 C37.2351181,18 37.067709,17.9293162 36.9263393,17.7879464 L36,16.8616071 L35.0736607,17.7879464 C34.932291,17.9293162 34.7648819,18 34.5714286,18 C34.3779752,18 34.2105662,17.9293162 34.0691964,17.7879464 L33.1428571,16.8616071 L32.2165179,17.7879464 C32.0751481,17.9293162 31.9077391,18 31.7142857,18 C31.5208324,18 31.3534233,17.9293162 31.2120536,17.7879464 L30.2857143,16.8616071 L29.359375,17.7879464 C29.2180052,17.9293162 29.0505962,18 28.8571429,18 C28.6636895,18 28.4962805,17.9293162 28.3549107,17.7879464 L27.4285714,16.8616071 L26.5022321,17.7879464 C26.3608624,17.9293162 26.1934533,18 26,18 C25.8065467,18 25.6391376,17.9293162 25.4977679,17.7879464 L24.5714286,16.8616071 L23.6450893,17.7879464 Z M28.1428571,5.14285714 L28.1428571,6.57142857 L32.4285714,5.14285714 L36.7142857,6.57142857 L36.7142857,5.14285714 L35.2857143,5.14285714 L35.2857143,3.71428571 L29.5714286,3.71428571 L29.5714286,5.14285714 L28.1428571,5.14285714 Z" id="ship---FontAwesome"></path>
                    </g>
                </g>
            </g>
        </g>
    </g>
</svg>